<svg width="60" height="60" viewBox="0 0 60 60" fill="none" xmlns="http://www.w3.org/2000/svg">
<path d="M57.1614 41.71L58.6402 40.4561H58.6426C59.2473 39.9147 59.3106 38.9889 58.7856 38.3701C58.2629 37.7514 57.3418 37.66 56.7067 38.1662L55.8606 38.8834L53.7535 34.442C53.4817 33.6569 53.0387 32.942 52.4527 32.3537C51.4614 31.3928 50.1371 30.8561 48.759 30.8584H36.4662C35.0787 30.8584 33.7451 31.4022 32.7537 32.3724C32.2076 32.9138 31.7904 33.5724 31.5326 34.2943L29.367 38.8833L28.5162 38.1638V38.1662C28.2138 37.906 27.82 37.7795 27.4216 37.8123C27.0255 37.8451 26.6576 38.0349 26.3998 38.3396C26.142 38.642 26.0154 39.0381 26.0506 39.4341C26.0834 39.8302 26.2732 40.1982 26.5779 40.456L28.0615 41.7123C26.531 42.8748 25.631 44.6841 25.624 46.606V51.031V51.0286C25.6311 54.0075 28.0076 56.4403 30.9842 56.5153V57.6685C30.9842 58.4958 31.6568 59.1685 32.4842 59.1685C33.3139 59.1685 33.9842 58.4958 33.9842 57.6685V56.5294H51.239V57.6685C51.239 58.4958 51.9093 59.1685 52.739 59.1685C53.5663 59.1685 54.239 58.4958 54.239 57.6685V56.5153C57.2179 56.4427 59.5945 54.0099 59.6015 51.0286V46.606C59.5945 44.6818 58.6918 42.8725 57.1614 41.71ZM34.3002 35.4262C34.415 35.084 34.6002 34.7746 34.8486 34.5121C35.2775 34.0903 35.8564 33.8535 36.4611 33.8583H48.7539H48.7516C49.3492 33.8512 49.9234 34.0786 50.3524 34.4934C50.6383 34.8028 50.8539 35.1731 50.9828 35.5762L53.275 40.4044H32.029L34.3002 35.4262ZM56.5938 51.0262C56.5938 52.4043 55.4781 53.5246 54.1 53.5293H31.1242C29.7438 53.527 28.6258 52.409 28.6234 51.0285V46.6058C28.6234 44.8387 30.0578 43.4043 31.825 43.4043H53.3968C54.2476 43.4043 55.0608 43.7418 55.6608 44.3418C56.2608 44.9418 56.5983 45.7574 56.5983 46.6058L56.5938 51.0262Z" fill="#0080C5"/>
<path d="M53.4932 48.4671C53.4932 51.4108 49.0752 51.4108 49.0752 48.4671C49.0752 45.5233 53.4932 45.5233 53.4932 48.4671Z" fill="#0080C5"/>
<path d="M36.147 48.4671C36.147 51.4108 31.729 51.4108 31.729 48.4671C31.729 45.5233 36.147 45.5233 36.147 48.4671Z" fill="#0080C5"/>
<path d="M44.9245 46.967H40.3003C39.473 46.967 38.8003 47.6397 38.8003 48.467C38.8003 49.2967 39.473 49.967 40.3003 49.967H44.9268C45.7542 49.967 46.4268 49.2967 46.4268 48.467C46.4268 47.6397 45.7542 46.967 44.9268 46.967H44.9245Z" fill="#0080C5"/>
<path d="M13.5632 59.1686H21.8156C22.6429 59.1686 23.3156 58.496 23.3156 57.6686C23.3156 56.839 22.6429 56.1686 21.8156 56.1686H15.0632V37.1421C15.0632 36.596 15.5062 36.1554 16.0499 36.1554H23.3861C24.2134 36.1554 24.8861 35.485 24.8861 34.6554C24.8861 33.828 24.2134 33.1554 23.3861 33.1554H16.0499C13.8514 33.1624 12.0702 34.9437 12.0632 37.1421V56.1686H7.88192C5.51941 56.1663 3.60223 54.2491 3.5999 51.8866V19.8334C3.59755 17.5225 4.8257 15.3826 6.82256 14.2201L24.9864 4.91294V4.91059C25.9285 4.44184 26.9645 4.19809 28.0168 4.19809H28.0497H28.0473C29.0996 4.1934 30.1379 4.4395 31.0778 4.91293L49.1834 14.1823C51.2107 15.3425 52.4623 17.4964 52.467 19.8308V24.9308C52.467 25.7605 53.1373 26.4308 53.967 26.4308C54.7943 26.4308 55.467 25.7605 55.467 24.9308V19.8331C55.4623 18.1456 55.01 16.491 54.1568 15.0355C53.3037 13.58 52.0803 12.3753 50.6107 11.548L32.4469 2.24077C31.0852 1.55641 29.5829 1.20013 28.0618 1.20013H28.0079C26.4821 1.19076 24.9774 1.54701 23.6204 2.24077L5.39776 11.5828C3.94228 12.4148 2.73292 13.6148 1.89148 15.0632C1.04776 16.5117 0.604778 18.157 0.600098 19.8328V51.886C0.604785 55.9055 3.8626 59.1634 7.8823 59.1682L13.5632 59.1686Z" fill="#0080C5"/>
<path d="M38.0366 14.2389L36.5741 11.86C35.8405 10.674 34.2843 10.3037 33.0936 11.0303L32.7608 11.2295L32.7632 11.2319C32.5967 11.3326 32.3858 11.3326 32.2217 11.2319C32.06 11.1428 31.9592 10.974 31.9616 10.7889C31.9593 9.17638 30.6514 7.86856 29.0389 7.86622H27.0397C26.2593 7.86388 25.5093 8.17326 24.9585 8.72404C24.4077 9.27483 24.0983 10.0225 24.1006 10.8029C24.1006 10.9811 24.0045 11.1428 23.8475 11.2295L23.8241 11.2459C23.6647 11.3396 23.4655 11.3396 23.3038 11.2459L22.9756 11.0467V11.0443C21.785 10.3155 20.2264 10.6881 19.4928 11.8764L18.0326 14.2552C17.3061 15.4482 17.6787 17.0044 18.867 17.7404C19.2162 17.963 19.4272 18.3474 19.4272 18.7623C19.4272 19.1771 19.2162 19.5615 18.867 19.7865C17.6764 20.5177 17.3014 22.0763 18.0303 23.2693L19.4998 25.6365C20.2334 26.8248 21.7873 27.1951 22.9756 26.4685L23.3178 26.2693V26.2669C23.4866 26.1638 23.6975 26.1638 23.8662 26.2669C24.0233 26.356 24.1194 26.5247 24.117 26.7052C24.1194 28.3177 25.4249 29.6255 27.0397 29.6302H29.0389C30.6537 29.6278 31.9592 28.32 31.9616 26.7052C31.9616 26.513 32.0694 26.3372 32.2405 26.2482C32.4045 26.1614 32.6037 26.1661 32.7631 26.2622L33.0959 26.4614H33.0936C34.2866 27.1856 35.8428 26.8153 36.5764 25.6271L38.0342 23.2505C38.3881 22.6787 38.4983 21.9896 38.3413 21.3357C38.1866 20.6818 37.7764 20.117 37.2022 19.7654C36.846 19.5404 36.635 19.1467 36.6421 18.7247C36.6444 18.3169 36.86 17.9372 37.2092 17.7263C38.3952 16.988 38.7655 15.4318 38.0366 14.2389ZM35.5147 22.0083L34.3288 23.9371L34.2257 23.8738V23.8762C33.1968 23.2434 31.9053 23.2199 30.8553 23.8176C29.7842 24.4551 29.1022 25.5848 29.039 26.8293L26.9015 26.698C26.8944 25.4957 26.2428 24.3918 25.1952 23.8082C24.1475 23.2223 22.8655 23.2481 21.8413 23.8738L21.7288 23.9395L20.5452 22.0106V22.0082C21.5952 21.2559 22.2186 20.0395 22.2186 18.7481C22.2186 17.4544 21.5952 16.2403 20.5452 15.4856L21.7288 13.5567L21.8319 13.6176H21.8436C22.3475 13.927 22.9265 14.0887 23.5171 14.0887C23.9718 14.077 24.4194 13.9762 24.8343 13.7934C24.9655 13.7676 25.0921 13.7231 25.2093 13.6598C25.2304 13.6481 25.2468 13.627 25.2702 13.6153C25.2913 13.6036 25.2983 13.6153 25.3101 13.5965L25.3382 13.5754C25.3593 13.5614 25.3687 13.5403 25.3851 13.5239V13.5262C26.3413 12.8723 26.9437 11.8129 27.0116 10.6551L29.1421 10.7793C29.1491 11.9817 29.8007 13.0856 30.8507 13.6715C31.8984 14.2598 33.1827 14.2364 34.2093 13.6106L34.3148 13.5473L35.4984 15.4762C34.4484 16.2285 33.8249 17.4449 33.8249 18.7363C33.8249 20.03 34.4484 21.2442 35.4984 21.9988L35.5147 22.0083Z" fill="#0080C5"/>
<path d="M28.0335 14.7944C26.4327 14.7944 24.989 15.7577 24.3772 17.2366C23.7655 18.7155 24.1053 20.4171 25.235 21.5468C26.367 22.6788 28.0686 23.0163 29.5475 22.4046C31.0264 21.7906 31.9897 20.3468 31.9897 18.7483C31.985 16.564 30.2156 14.7968 28.0335 14.7944ZM28.0335 19.9015C27.5671 19.9015 27.1452 19.6179 26.9671 19.1866C26.789 18.7554 26.8897 18.2608 27.2202 17.9303C27.5507 17.6022 28.0452 17.5038 28.4765 17.6819C28.9077 17.86 29.189 18.2819 29.189 18.7483C29.189 19.053 29.0671 19.3483 28.8492 19.5639C28.6335 19.7795 28.3382 19.9015 28.0335 19.9015Z" fill="#0080C5"/>
</svg>
