<svg width="59" height="59" viewBox="0 0 59 59" fill="none" xmlns="http://www.w3.org/2000/svg">
<path d="M48.1647 34.6347C47.9533 34.6347 47.7505 34.5507 47.601 34.4012C47.4514 34.2516 47.3674 34.0488 47.3674 33.8374V31.4694C47.3674 31.258 47.4514 31.0552 47.601 30.9056C47.7505 30.7561 47.9533 30.6721 48.1647 30.6721C48.3762 30.6721 48.579 30.7561 48.7285 30.9056C48.878 31.0552 48.962 31.258 48.962 31.4694V33.8374C48.962 34.0488 48.878 34.2516 48.7285 34.4012C48.579 34.5507 48.3762 34.6347 48.1647 34.6347Z" fill="#0080C5" stroke="white" stroke-width="0.3"/>
<path d="M22.707 57.4054C22.4956 57.4054 22.2928 57.3214 22.1433 57.1719C21.9937 57.0223 21.9097 56.8195 21.9097 56.6081V2.39187C21.9092 2.28011 21.9321 2.16948 21.9771 2.06715C22.022 1.96483 22.088 1.8731 22.1707 1.79792C22.2534 1.72274 22.351 1.66579 22.4571 1.63075C22.5633 1.59572 22.6756 1.5834 22.7868 1.59457L48.2445 4.16984C48.4418 4.18968 48.6247 4.28235 48.7574 4.42978C48.8901 4.57721 48.963 4.7688 48.962 4.96714V17.987C48.962 18.1985 48.878 18.4013 48.7285 18.5508C48.579 18.7003 48.3762 18.7843 48.1647 18.7843C47.9533 18.7843 47.7505 18.7003 47.601 18.5508C47.4514 18.4013 47.3674 18.1985 47.3674 17.987V5.6879L23.5043 3.27368V55.6952L47.3674 52.4621V39.4184C47.3674 39.2069 47.4514 39.0041 47.601 38.8546C47.7505 38.7051 47.9533 38.6211 48.1647 38.6211C48.3762 38.6211 48.579 38.7051 48.7285 38.8546C48.878 39.0041 48.962 39.2069 48.962 39.4184V53.1558C48.9621 53.3486 48.8922 53.5349 48.7654 53.6802C48.6386 53.8255 48.4634 53.9199 48.2724 53.9459L22.8147 57.3982C22.779 57.403 22.743 57.4054 22.707 57.4054Z" fill="#0080C5" stroke="white" stroke-width="0.3"/>
<path d="M48.1647 26.6857C47.9533 26.6857 47.7505 26.6017 47.601 26.4522C47.4514 26.3027 47.3674 26.0999 47.3674 25.8884V23.5683C47.3674 23.3568 47.4514 23.154 47.601 23.0045C47.7505 22.855 47.9533 22.771 48.1647 22.771C48.3762 22.771 48.579 22.855 48.7285 23.0045C48.878 23.154 48.962 23.3568 48.962 23.5683V25.8884C48.962 26.0999 48.878 26.3027 48.7285 26.4522C48.579 26.6017 48.3762 26.6857 48.1647 26.6857Z" fill="#0080C5" stroke="white" stroke-width="0.3"/>
<path d="M10.8903 54.4602C10.6788 54.4602 10.476 54.3762 10.3265 54.2267C10.177 54.0772 10.093 53.8744 10.093 53.6629V4.94329C10.093 4.73184 10.177 4.52904 10.3265 4.37952C10.476 4.23 10.6788 4.146 10.8903 4.146H22.7062C22.9177 4.146 23.1205 4.23 23.27 4.37952C23.4195 4.52904 23.5035 4.73184 23.5035 4.94329C23.5035 5.15475 23.4195 5.35755 23.27 5.50707C23.1205 5.65659 22.9177 5.74059 22.7062 5.74059H11.6876V53.6629C11.6876 53.8744 11.6036 54.0772 11.454 54.2267C11.3045 54.3762 11.1017 54.4602 10.8903 54.4602Z" fill="#0080C5" stroke="white" stroke-width="0.3"/>
<path d="M15.3934 54.4602C15.1819 54.4602 14.9791 54.3762 14.8296 54.2267C14.6801 54.0772 14.5961 53.8744 14.5961 53.6629V9.60028C14.5961 9.38882 14.6801 9.18602 14.8296 9.0365C14.9791 8.88698 15.1819 8.80298 15.3934 8.80298H22.7006C22.9121 8.80298 23.1148 8.88698 23.2644 9.0365C23.4139 9.18602 23.4979 9.38882 23.4979 9.60028C23.4979 9.81173 23.4139 10.0145 23.2644 10.1641C23.1148 10.3136 22.9121 10.3976 22.7006 10.3976H16.1907V53.6629C16.1907 53.8744 16.1067 54.0772 15.9571 54.2267C15.8076 54.3762 15.6048 54.4602 15.3934 54.4602Z" fill="#0080C5" stroke="white" stroke-width="0.3"/>
<path d="M22.7007 54.4603H2.43096C2.21951 54.4603 2.01671 54.3763 1.86719 54.2268C1.71767 54.0773 1.63367 53.8745 1.63367 53.663C1.63367 53.4516 1.71767 53.2488 1.86719 53.0992C2.01671 52.9497 2.21951 52.8657 2.43096 52.8657H22.7007C22.9121 52.8657 23.1149 52.9497 23.2644 53.0992C23.4139 53.2488 23.4979 53.4516 23.4979 53.663C23.4979 53.8745 23.4139 54.0773 23.2644 54.2268C23.1149 54.3763 22.9121 54.4603 22.7007 54.4603Z" fill="#0080C5" stroke="white" stroke-width="0.3"/>
<path d="M56.569 54.4603H44.364C44.1526 54.4603 43.9498 54.3763 43.8002 54.2268C43.6507 54.0773 43.5667 53.8745 43.5667 53.663C43.5667 53.4516 43.6507 53.2488 43.8002 53.0992C43.9498 52.9497 44.1526 52.8657 44.364 52.8657H56.569C56.7805 52.8657 56.9833 52.9497 57.1328 53.0992C57.2823 53.2488 57.3663 53.4516 57.3663 53.663C57.3663 53.8745 57.2823 54.0773 57.1328 54.2268C56.9833 54.3763 56.7805 54.4603 56.569 54.4603Z" fill="#0080C5" stroke="white" stroke-width="0.3"/>
<path d="M28.2403 32.3815C27.6704 32.3815 27.1133 32.2125 26.6394 31.8959C26.1656 31.5793 25.7963 31.1293 25.5782 30.6028C25.3601 30.0763 25.303 29.4969 25.4142 28.9379C25.5254 28.379 25.7998 27.8656 26.2028 27.4626C26.6058 27.0596 27.1192 26.7852 27.6781 26.674C28.2371 26.5628 28.8164 26.6199 29.3429 26.838C29.8694 27.0561 30.3195 27.4254 30.6361 27.8992C30.9527 28.3731 31.1217 28.9302 31.1217 29.5001C31.1209 30.264 30.817 30.9964 30.2768 31.5366C29.7366 32.0768 29.0042 32.3807 28.2403 32.3815ZM28.2403 28.2133C27.9857 28.2133 27.7369 28.2887 27.5253 28.4301C27.3137 28.5715 27.1488 28.7725 27.0514 29.0076C26.954 29.2428 26.9285 29.5015 26.9781 29.7511C27.0278 30.0008 27.1504 30.2301 27.3303 30.41C27.5103 30.59 27.7396 30.7125 27.9892 30.7622C28.2388 30.8119 28.4976 30.7864 28.7327 30.689C28.9679 30.5916 29.1688 30.4266 29.3102 30.215C29.4516 30.0034 29.5271 29.7546 29.5271 29.5001C29.5267 29.1589 29.391 28.8319 29.1497 28.5906C28.9085 28.3494 28.5814 28.2137 28.2403 28.2133Z" fill="#0080C5" stroke="white" stroke-width="0.3"/>
</svg>
