<svg width="52" height="52" viewBox="0 0 52 52" fill="none" xmlns="http://www.w3.org/2000/svg">
<path fill-rule="evenodd" clip-rule="evenodd" d="M24.5512 6.93227C24.5527 7.86827 24.5546 8.77056 24.5585 9.47304C24.558 10.9704 25.7205 12.2213 27.2251 12.3383C33.7054 12.8867 38.9614 17.7454 40.0819 24.0234C40.321 25.4192 41.5285 26.4351 42.9417 26.4351C43.6916 26.4351 44.6995 26.4351 45.7388 26.4347L45.7393 26.5512C45.7393 37.4076 36.8944 46.2221 25.9993 46.2221C15.1042 46.2221 6.25928 37.4076 6.25928 26.5512C6.25928 16.1796 14.3312 7.6723 24.5512 6.93227ZM25.9993 13.321C18.6715 13.321 12.7227 19.249 12.7227 26.5512C12.7227 33.8533 18.6715 39.7813 25.9993 39.7813C33.3271 39.7813 39.2759 33.8533 39.2759 26.5512C39.2759 19.249 33.3271 13.321 25.9993 13.321ZM25.9993 14.7655C32.527 14.7655 37.8264 20.0464 37.8264 26.5512C37.8264 33.056 32.527 38.3369 25.9993 38.3369C19.4716 38.3369 14.1722 33.056 14.1722 26.5512C14.1722 20.0464 19.4716 14.7655 25.9993 14.7655ZM20.3438 30.0188C19.1431 30.0188 18.1685 30.9899 18.1685 32.1864C18.1685 33.3834 19.1431 34.3545 20.3438 34.3545C21.5444 34.3545 22.5195 33.3834 22.5195 32.1864C22.5195 30.9899 21.5444 30.0188 20.3438 30.0188ZM31.6548 30.0188C30.4542 30.0188 29.4791 30.9899 29.4791 32.1864C29.4791 33.3834 30.4542 34.3545 31.6548 34.3545C32.8555 34.3545 33.8301 33.3834 33.8301 32.1864C33.8301 30.9899 32.8555 30.0188 31.6548 30.0188ZM20.3438 31.4632C20.7448 31.4632 21.07 31.7873 21.07 32.1864C21.07 32.5861 20.7448 32.9101 20.3438 32.9101C19.9432 32.9101 19.618 32.5861 19.618 32.1864C19.618 31.7873 19.9432 31.4632 20.3438 31.4632ZM31.6548 31.4632C32.0554 31.4632 32.3806 31.7873 32.3806 32.1864C32.3806 32.5861 32.0554 32.9101 31.6548 32.9101C31.2538 32.9101 30.9286 32.5861 30.9286 32.1864C30.9286 31.7873 31.2538 31.4632 31.6548 31.4632ZM25.9993 21.9193C23.4337 21.9193 21.3512 23.9945 21.3512 26.5512C21.3512 29.1074 23.4337 31.183 25.9993 31.183C28.5645 31.183 30.6474 29.1074 30.6474 26.5512C30.6474 23.9945 28.5645 21.9193 25.9993 21.9193ZM25.9993 23.3638C27.7648 23.3638 29.1979 24.7918 29.1979 26.5512C29.1979 28.3105 27.7648 29.7386 25.9993 29.7386C24.2338 29.7386 22.8007 28.3105 22.8007 26.5512C22.8007 24.7918 24.2338 23.3638 25.9993 23.3638ZM20.3438 18.7478C19.1431 18.7478 18.1685 19.719 18.1685 20.9154C18.1685 22.1119 19.1431 23.0835 20.3438 23.0835C21.5444 23.0835 22.5195 22.1119 22.5195 20.9154C22.5195 19.719 21.5444 18.7478 20.3438 18.7478ZM31.6548 18.7478C30.4542 18.7478 29.4791 19.719 29.4791 20.9154C29.4791 22.1119 30.4542 23.0835 31.6548 23.0835C32.8555 23.0835 33.8301 22.1119 33.8301 20.9154C33.8301 19.719 32.8555 18.7478 31.6548 18.7478ZM20.3438 20.1923C20.7448 20.1923 21.07 20.5163 21.07 20.9154C21.07 21.3151 20.7448 21.6391 20.3438 21.6391C19.9432 21.6391 19.618 21.3151 19.618 20.9154C19.618 20.5163 19.9432 20.1923 20.3438 20.1923ZM31.6548 20.1923C32.0554 20.1923 32.3806 20.5163 32.3806 20.9154C32.3806 21.3151 32.0554 21.6391 31.6548 21.6391C31.2538 21.6391 30.9286 21.3151 30.9286 20.9154C30.9286 20.5163 31.2538 20.1923 31.6548 20.1923Z" fill="#151617"/>
<path fill-rule="evenodd" clip-rule="evenodd" d="M42.9422 24.9907C42.2334 24.9907 41.628 24.4798 41.5116 23.7831C40.2814 16.8604 34.4882 11.501 27.3435 10.8987C26.5902 10.8433 26.0075 10.2179 26.0075 9.46534C25.9993 7.81675 25.9993 5.06653 25.9993 3.37171C25.9993 2.97546 26.1626 2.59653 26.4511 2.32353C26.7395 2.05005 27.1275 1.90705 27.5252 1.92775C39.4117 2.65575 49.0437 11.7543 50.5454 23.3753C50.5942 23.7836 50.4652 24.1934 50.1913 24.501C49.9168 24.8082 49.524 24.9844 49.1114 24.9844C47.3526 24.9907 44.5541 24.9907 42.9422 24.9907ZM45.2557 18.133C43.9236 18.133 42.8422 19.2105 42.8422 20.5384C42.8422 21.8659 43.9236 22.9434 45.2557 22.9434C46.5878 22.9434 47.6696 21.8659 47.6696 20.5384C47.6696 19.2105 46.5878 18.133 45.2557 18.133ZM45.2557 19.5774C45.7881 19.5774 46.2201 20.0078 46.2201 20.5384C46.2201 21.0685 45.7881 21.499 45.2557 21.499C44.7237 21.499 44.2917 21.0685 44.2917 20.5384C44.2917 20.0078 44.7237 19.5774 45.2557 19.5774ZM31.0663 4.47479C29.7337 4.47479 28.6524 5.55282 28.6524 6.88027C28.6524 8.20771 29.7337 9.28526 31.0663 9.28526C32.3984 9.28526 33.4798 8.20771 33.4798 6.88027C33.4798 5.55282 32.3984 4.47479 31.0663 4.47479ZM31.0663 5.91923C31.5983 5.91923 32.0303 6.34967 32.0303 6.88027C32.0303 7.41038 31.5983 7.84082 31.0663 7.84082C30.5339 7.84082 30.1019 7.41038 30.1019 6.88027C30.1019 6.34967 30.5339 5.91923 31.0663 5.91923Z" fill="#151617"/>
</svg>
