<svg width="58" height="58" viewBox="0 0 58 58" fill="none" xmlns="http://www.w3.org/2000/svg">
<g clip-path="url(#clip0_10_202)">
<path d="M6.92427 47.794C11.0307 52 16.8316 54.1334 24.1667 54.1334C31.5018 54.1334 37.3027 52 41.4091 47.794C42.2864 46.8864 43.0767 45.8987 43.7697 44.8437C44.5947 44.4165 45.4722 44.0993 46.3797 43.9003C46.7393 43.8162 47.1231 43.734 47.5233 43.647C51.301 42.834 57.0102 41.6044 57.7806 35.8963C58.1992 32.7971 57.0189 31.1064 55.9555 30.2335C53.9255 28.5651 50.8718 28.5448 48.2957 29.1538C48.3401 28.0972 48.3459 27.1189 48.3256 26.2673C48.3256 26.2112 48.3353 26.1561 48.3353 26.1001C48.3353 22.3455 44.314 19.0743 37.3027 17.1265C36.7907 16.9901 36.2643 17.2914 36.1226 17.802C35.9808 18.3126 36.2765 18.8421 36.7856 18.9893C42.7151 20.6374 46.4 23.3625 46.4 26.1001C46.4 30.3012 37.4661 34.8001 24.1667 34.8001C10.8673 34.8001 1.93337 30.3012 1.93337 26.1001C1.93337 23.3712 5.61927 20.6461 11.5507 18.9883C11.8885 18.8999 12.1524 18.6362 12.241 18.2985C12.3296 17.9608 12.2293 17.6016 11.9785 17.3587C11.7276 17.1158 11.3653 17.027 11.0307 17.1265C4.0204 19.0859 3.23672e-05 22.3562 3.23672e-05 26.1001C3.23672e-05 26.1581 0.00776569 26.2141 0.00969903 26.2712C-0.115001 31.5511 0.621599 41.3367 6.92427 47.794ZM54.7269 31.728C55.7206 32.5439 56.1025 33.8547 55.8627 35.6372C55.274 39.9998 50.75 40.9742 47.1144 41.7572C46.7026 41.8461 46.3082 41.9312 45.9399 42.0172C45.7156 42.0694 45.501 42.1293 45.2855 42.1893C46.891 38.7232 47.864 34.998 48.1584 31.1896C50.7945 30.4307 53.3774 30.6221 54.7269 31.728ZM24.1667 36.7334C34.1688 36.7334 42.5662 34.1872 46.2811 30.4568C45.9003 35.4622 44.4667 41.8993 40.0258 46.4436C36.2974 50.2667 30.9614 52.2001 24.1667 52.2001C17.372 52.2001 12.036 50.2667 8.30757 46.4436C3.8841 41.9109 2.44087 35.4951 2.0542 30.4588C5.77103 34.1882 14.1665 36.7334 24.1667 36.7334Z" fill="#0080C5" stroke="white" stroke-width="0.5"/>
<path d="M5.14082 36.9266C5.9666 39.9794 7.529 42.7829 9.69092 45.0911C10.9609 46.385 12.4471 47.4472 14.0825 48.2299C14.5599 48.4444 15.1213 48.24 15.3491 47.7688C15.5769 47.2976 15.3882 46.7306 14.9235 46.4898C13.4907 45.8049 12.1884 44.8752 11.0752 43.7426C9.13374 41.659 7.73275 39.1311 6.99489 36.3804C6.83774 35.8762 6.30497 35.5915 5.7984 35.7409C5.29184 35.8904 4.99903 36.4188 5.14082 36.9276V36.9266Z" fill="#0080C5" stroke="white" stroke-width="0.5"/>
<path d="M10.5048 11.4714C14.1242 7.8407 19.04 5.80002 24.1667 5.80002C29.2934 5.80002 34.2092 7.8407 37.8286 11.4714C38.0713 11.7227 38.4307 11.8235 38.7687 11.735C39.1067 11.6466 39.3706 11.3826 39.4591 11.0447C39.5475 10.7067 39.4468 10.3473 39.1955 10.1046C35.2136 6.11115 29.8061 3.8667 24.1667 3.8667C18.5273 3.8667 13.1198 6.11115 9.13793 10.1046C8.77159 10.4839 8.77683 11.0868 9.14971 11.4597C9.52258 11.8325 10.1255 11.8378 10.5048 11.4714Z" fill="#0080C5" stroke="white" stroke-width="0.5"/>
<path d="M24.1667 9.66653C20.0637 9.65853 16.128 11.2921 13.2366 14.2031C12.8702 14.5824 12.8755 15.1853 13.2483 15.5582C13.6212 15.9311 14.2241 15.9363 14.6034 15.57C17.137 13.0285 20.578 11.6 24.1667 11.6C27.7553 11.6 31.1963 13.0285 33.7299 15.57C34.1092 15.9363 34.7121 15.9311 35.085 15.5582C35.4579 15.1853 35.4631 14.5824 35.0968 14.2031C32.2053 11.2921 28.2696 9.65853 24.1667 9.66653Z" fill="#0080C5" stroke="white" stroke-width="0.5"/>
<path d="M18.7021 19.6689C20.1497 18.2164 22.116 17.4 24.1666 17.4C26.2173 17.4 28.1836 18.2164 29.6312 19.6689C30.0105 20.0353 30.6134 20.03 30.9863 19.6571C31.3592 19.2843 31.3644 18.6813 30.9981 18.302C29.191 16.4825 26.7311 15.4615 24.1666 15.4668C23.9897 15.4668 23.8244 15.4668 23.6591 15.4784C23.6379 15.4784 23.6195 15.492 23.5982 15.4949C21.2362 15.6247 19.0056 16.6231 17.3352 18.2982C16.9689 18.6775 16.9741 19.2804 17.347 19.6533C17.7198 20.0261 18.3228 20.0314 18.7021 19.665V19.6689Z" fill="#0080C5" stroke="white" stroke-width="0.5"/>
<path d="M28.0334 25.1333C28.0334 22.9978 26.3022 21.2666 24.1667 21.2666C22.0312 21.2666 20.3 22.9978 20.3 25.1333C20.3 27.2688 22.0312 28.9999 24.1667 28.9999C26.3022 28.9999 28.0334 27.2688 28.0334 25.1333ZM24.1667 23.1999C25.2345 23.1999 26.1001 24.0655 26.1001 25.1333C26.1001 26.201 25.2345 27.0666 24.1667 27.0666C23.099 27.0666 22.2334 26.201 22.2334 25.1333C22.2334 24.0655 23.099 23.1999 24.1667 23.1999Z" fill="#0080C5" stroke="white" stroke-width="0.5"/>
</g>
<defs>
<clipPath id="clip0_10_202">
<rect width="58" height="58" fill="white"/>
</clipPath>
</defs>
</svg>
