<svg width="60" height="60" viewBox="0 0 60 60" fill="none" xmlns="http://www.w3.org/2000/svg">
<path d="M48.9126 22.9353H47.0961V13.2394C47.0961 13.2242 47.1012 13.2114 47.1012 13.1961C47.1012 7.16606 34.9675 3.91309 23.5519 3.91309C12.1336 3.91309 0.00254755 7.16633 0.00254755 13.1961C0.00254755 13.1987 0.0050948 13.2012 0.0050948 13.2038H0V35.3855C0 46.6225 9.14348 55.7659 20.3804 55.7659H26.7162C34.346 55.7659 41.3542 51.4326 44.8244 44.6738H48.9132C51.8022 44.6738 54.5306 43.5376 56.5965 41.4715C58.6498 39.4182 59.7809 36.6948 59.7809 33.8058C59.7809 27.8114 54.9044 22.9353 48.9126 22.9353ZM45.4173 16.7906C45.4708 16.7371 45.5269 16.681 45.5778 16.625C45.5269 16.681 45.4734 16.7371 45.4173 16.7906ZM47.0961 13.2394C47.0936 13.5426 47.0477 13.838 46.9841 14.1284C47.0452 13.838 47.0936 13.5452 47.0961 13.2394ZM46.9178 14.4061C46.8439 14.6634 46.7446 14.9131 46.6223 15.1576C46.742 14.913 46.8439 14.6634 46.9178 14.4061ZM46.4159 15.5347C46.3268 15.685 46.2249 15.8302 46.1204 15.9729C46.2249 15.8277 46.3293 15.6825 46.4159 15.5347ZM23.5494 6.63122C36.4579 6.63122 44.3831 10.4551 44.3831 13.1986C44.3831 15.9398 36.4579 19.766 23.5494 19.766C10.6436 19.7635 2.71834 15.937 2.71834 13.196C2.71834 10.455 10.6436 6.63122 23.5494 6.63122ZM1.50008 16.6049C1.56122 16.6711 1.62746 16.7348 1.69115 16.7985C1.62746 16.7348 1.56377 16.6712 1.50008 16.6049ZM0.00210192 13.2141C0.00464931 13.5377 0.053053 13.851 0.121834 14.1593C0.0504997 13.8536 0.0046454 13.5402 0.00210192 13.2141ZM0.170239 14.3758C0.246667 14.6484 0.356213 14.9108 0.481039 15.168C0.353663 14.9107 0.249211 14.6483 0.170239 14.3758ZM0.667013 15.5069C0.774009 15.6878 0.896291 15.8636 1.02367 16.0368C0.893748 15.8661 0.774015 15.6878 0.667013 15.5069ZM42.7524 42.7482C39.8762 49.005 33.579 53.048 26.7155 53.048H20.3798C10.6402 53.048 2.71758 45.1254 2.71758 35.3858V17.6826C2.71248 17.6775 2.70739 17.6724 2.70229 17.6698C6.90575 20.8135 15.4021 22.4822 23.5542 22.4822C31.6914 22.4822 40.1697 20.8211 44.3808 17.6876V35.3883C44.3782 37.9638 43.8326 40.4402 42.7524 42.7482ZM54.6748 39.5511C53.1234 41.1025 51.0777 41.9585 48.9123 41.9585H45.9953C46.7214 39.8593 47.0933 37.6582 47.0933 35.3859V25.6542H48.9123C53.4087 25.6542 57.0645 29.3099 57.0645 33.8063C57.0645 35.9692 56.2136 38.0098 54.6748 39.5511Z" fill="#0080C5"/>
<path d="M23.5646 49.9927C21.4297 49.9927 19.6948 48.2552 19.6948 46.1229C19.6948 43.9881 21.4323 42.2532 23.5646 42.2532C25.6994 42.2532 27.4343 43.9906 27.4343 46.1229C27.4343 48.2552 25.6994 49.9927 23.5646 49.9927ZM23.5646 44.9689C22.9277 44.9689 22.4105 45.486 22.4105 46.1229C22.4105 46.7598 22.9277 47.2769 23.5646 47.2769C24.2014 47.2769 24.7186 46.7598 24.7186 46.1229C24.7186 45.486 24.1989 44.9689 23.5646 44.9689Z" fill="#0080C5"/>
<path d="M33.1963 31.951C32.8651 31.951 32.5365 31.8313 32.2741 31.5893C31.2041 30.5983 28.2464 28.2953 23.8904 28.2545C19.4245 28.1908 16.3799 30.5728 15.2823 31.5893C14.7295 32.0962 13.871 32.0656 13.3615 31.5128C12.852 30.9625 12.8851 30.1015 13.4354 29.592C14.7627 28.3666 18.4057 25.5337 23.7756 25.5337H23.9157C29.2197 25.5821 32.8166 28.387 34.119 29.592C34.6692 30.1015 34.7049 30.96 34.1954 31.5128C33.9254 31.8032 33.5606 31.951 33.1963 31.951Z" fill="#0080C5"/>
<path d="M16.8694 37.5453C16.5281 37.5453 16.1841 37.4154 15.9192 37.158C15.3817 36.6333 15.374 35.7722 15.8963 35.2372C16.6555 34.4602 19.4629 31.9279 23.7556 31.9229H23.7786C28.0763 31.9229 30.8938 34.4577 31.6555 35.2372C32.1803 35.7747 32.1701 36.6332 31.6326 37.158C31.0951 37.6854 30.2366 37.6727 29.7117 37.1351C29.136 36.5492 27.0139 34.6385 23.7759 34.6385H23.7606C20.5278 34.6436 18.4108 36.5492 17.8401 37.1351C17.5726 37.4077 17.221 37.5453 16.8694 37.5453Z" fill="#0080C5"/>
<path d="M19.379 42.2787C19.0682 42.2787 18.7574 42.1717 18.5001 41.9577C17.9269 41.4737 17.8555 40.6152 18.3421 40.042C18.8414 39.4535 20.7088 37.525 23.7532 37.5173H23.7761C26.8382 37.5173 28.7081 39.4509 29.21 40.042C29.694 40.6152 29.6227 41.4737 29.0495 41.9552C28.4763 42.4418 27.6178 42.3704 27.1337 41.7947C26.9146 41.5348 25.7147 40.2331 23.7761 40.2331H23.7633C21.8349 40.2382 20.6375 41.5374 20.4184 41.7972C20.1484 42.1157 19.7663 42.2787 19.379 42.2787Z" fill="#0080C5"/>
</svg>
