<svg width="60" height="60" viewBox="0 0 60 60" fill="none" xmlns="http://www.w3.org/2000/svg">
<path d="M40.2034 40.4464C43.1612 37.5261 44.6894 33.4576 44.3871 29.311C44.0847 25.1673 41.9824 21.361 38.6332 18.8998C37.5574 18.1076 36.1277 17.9881 34.937 18.5951C33.7652 19.1858 33.0292 20.3881 33.0339 21.7006L32.9988 29.1886L27.4136 29.1581V21.6911H27.4159C27.4183 20.3693 26.6776 19.1575 25.4988 18.5575C24.3644 17.9622 22.9909 18.056 21.948 18.8013C18.2191 21.4801 16.0159 25.7973 16.0323 30.3885C16.1237 35.3431 18.7558 39.9015 23.0025 42.4563V58.1007C23.0025 58.928 23.6752 59.6007 24.5025 59.6007C25.3322 59.6007 26.0025 58.928 26.0025 58.1007V43.8579C27.3033 44.2868 28.6627 44.5141 30.0338 44.5352H30.233C31.6674 44.5352 33.0924 44.3196 34.4612 43.893V58.101C34.4612 58.9284 35.1315 59.601 35.9612 59.601C36.7885 59.601 37.4612 58.9284 37.4612 58.101V42.543C38.4573 41.9594 39.3783 41.254 40.2033 40.4454L40.2034 40.4464ZM30.0736 41.5363C27.1533 41.4449 24.3807 40.2378 22.3276 38.1613C20.2722 36.0847 19.0933 33.3003 19.0323 30.3799C19.0206 26.7564 20.762 23.3533 23.7058 21.2419C23.7691 21.1926 23.8464 21.1669 23.9261 21.1669C23.9987 21.1692 24.0714 21.1879 24.137 21.2231C24.3128 21.3122 24.4253 21.4903 24.4276 21.6872V29.1542C24.4253 29.9604 24.7464 30.7338 25.3159 31.3034C25.8878 31.8729 26.6613 32.1917 27.4675 32.1893H33.0105C33.8167 32.1917 34.5925 31.8729 35.162 31.3034C35.7339 30.7338 36.0526 29.9604 36.0503 29.1542V21.6986C36.0433 21.5158 36.1464 21.3447 36.3128 21.2673C36.4956 21.1736 36.7159 21.1923 36.88 21.3165C39.444 23.2056 41.0847 26.0954 41.3894 29.2665C41.694 32.4377 40.6347 35.5875 38.4761 37.9293C36.3174 40.2707 33.2636 41.5832 30.0785 41.5364L30.0736 41.5363Z" fill="#0080C5"/>
<path d="M56.3307 25.177C58.6206 23.7684 59.3495 20.7778 57.962 18.4738L57.9409 18.4387L53.5604 11.3017C52.1401 9.00949 49.1354 8.29465 46.8338 9.70087L45.833 10.3126C44.5018 11.1212 42.833 11.1423 41.483 10.3641C40.1447 9.61882 39.3127 8.20786 39.3127 6.6751C39.3127 3.32356 36.5987 0.607298 33.2473 0.600098H27.2191C25.6043 0.607129 24.0574 1.25398 22.9183 2.39776C21.7816 3.54388 21.1465 5.09542 21.1511 6.71026C21.1488 8.21962 20.3332 9.60712 19.0183 10.3431C18.9972 10.3431 18.9855 10.3759 18.9668 10.3876L18.9339 10.4017C17.5886 11.154 15.9456 11.1189 14.6331 10.3126L13.6323 9.71261C11.3308 8.29931 8.31905 9.01415 6.89615 11.3134L2.52503 18.436C1.11173 20.7399 1.82657 23.7516 4.12583 25.1722L4.15395 25.1886C6.00549 26.3558 7.12347 28.3996 7.10709 30.5886C7.10475 32.7613 5.97975 34.7769 4.13523 35.9206C1.84539 37.3293 1.11885 40.3198 2.50395 42.6238L2.52505 42.659L6.90319 49.7888V49.7864C7.79617 51.2396 9.38053 52.1231 11.0868 52.1208C11.9868 52.1208 12.8681 51.8724 13.6321 51.3989L14.6329 50.7872C15.9689 49.9739 17.6423 49.9552 18.9993 50.7357L19.7493 49.4372L20.3915 48.0779C18.1016 46.7982 15.3008 46.8544 13.0673 48.2302L12.0665 48.8419C11.1758 49.381 10.0157 49.1021 9.46729 48.2161L5.09383 41.1121L5.07742 41.0863H5.07976C4.53836 40.1933 4.81726 39.0332 5.70556 38.4848C8.45476 36.7715 10.1212 33.7551 10.1048 30.5162C10.0977 27.3029 8.43604 24.3194 5.70556 22.6274L5.68447 22.6157C4.80559 22.0602 4.53835 20.9 5.08447 20.0165L9.45793 12.8867C10.0111 11.9937 11.1806 11.7148 12.0759 12.2609L13.0767 12.8609H13.0744C14.1994 13.5546 15.4955 13.9202 16.815 13.9202C18.0947 13.9109 19.351 13.5804 20.4665 12.9546H20.49L20.5369 12.9335L20.6189 12.8749H20.6212C22.8126 11.5812 24.1533 9.22102 24.1439 6.6757C24.1439 4.97884 25.522 3.6007 27.2189 3.6007H33.2447C34.9392 3.60305 36.3127 4.97884 36.3127 6.67336C36.3244 9.30304 37.7517 11.7218 40.0463 13.0064C42.3408 14.2907 45.1486 14.2392 47.3939 12.8728L48.3947 12.2611C49.29 11.715 50.4572 11.9939 51.008 12.8869L55.3744 19.9957L55.3908 20.0214L55.3884 20.0191C55.9298 20.9121 55.6509 22.0722 54.7626 22.6206C52.0228 24.3222 50.3564 27.3198 50.3564 30.5472C50.3564 33.7746 52.0227 36.7722 54.7626 38.4762C55.6463 39.027 55.9228 40.1849 55.3838 41.0754L51.0056 48.2052C50.4525 49.0982 49.283 49.3771 48.39 48.8287L47.3892 48.2287C45.1462 46.86 42.336 46.8107 40.0464 48.1021L39.9878 48.135H39.9901C39.6526 48.3342 39.4089 48.66 39.3128 49.0373C39.2167 49.417 39.2753 49.8201 39.4745 50.1553C39.8987 50.8701 40.8151 51.1139 41.537 50.7037C42.88 49.9537 44.523 49.9889 45.8307 50.7951L46.8315 51.3951C49.1331 52.8084 52.1448 52.0912 53.5677 49.7943L57.9459 42.6669C59.3615 40.363 58.6443 37.3489 56.3451 35.9289C54.4935 34.7711 53.3685 32.7414 53.3685 30.5594C53.3685 28.375 54.4935 26.3454 56.3451 25.1875L56.3307 25.177Z" fill="#0080C5"/>
</svg>
