<svg width="54" height="54" viewBox="0 0 54 54" fill="none" xmlns="http://www.w3.org/2000/svg">
<g clip-path="url(#clip0_10_191)">
<path d="M19.125 47.25H5.625C2.5245 47.25 0 44.7255 0 41.625V12.375C0 9.2745 2.5245 6.75 5.625 6.75H48.375C51.4755 6.75 54 9.2745 54 12.375V15.4234C54 16.0444 53.496 16.5484 52.875 16.5484C52.254 16.5484 51.75 16.0444 51.75 15.4234V12.375C51.75 10.5142 50.2357 9 48.375 9H5.625C3.76425 9 2.25 10.5142 2.25 12.375V41.625C2.25 43.4857 3.76425 45 5.625 45H19.125C19.746 45 20.25 45.504 20.25 46.125C20.25 46.746 19.746 47.25 19.125 47.25Z" fill="#0080C5" stroke="white"/>
<path d="M16.9839 34.8388H1.13226C0.507252 34.8388 0 34.3998 0 33.859V20.1412C0 19.6003 0.507252 19.1614 1.13226 19.1614H16.9839C20.1044 19.1614 22.6452 21.3601 22.6452 24.0606V25.3736C22.6452 25.9144 22.1379 26.3534 21.5129 26.3534C20.8879 26.3534 20.3806 25.9144 20.3806 25.3736V24.0606C20.3806 22.4399 18.8566 21.1211 16.9839 21.1211H2.26452V32.8791H16.9839C17.5998 32.7498 18.2067 33.079 18.3539 33.6042C18.5011 34.1294 18.132 34.6644 17.5251 34.7918C17.3009 34.8388 17.1107 34.8388 16.9839 34.8388Z" fill="#0080C5" stroke="white"/>
<path d="M11.25 31.5C8.76825 31.5 6.75 29.4817 6.75 27C6.75 24.5182 8.76825 22.5 11.25 22.5C13.7317 22.5 15.75 24.5182 15.75 27C15.75 29.4817 13.7317 31.5 11.25 31.5ZM11.25 24.75C10.0102 24.75 9 25.7602 9 27C9 28.2397 10.0102 29.25 11.25 29.25C12.4897 29.25 13.5 28.2397 13.5 27C13.5 25.7602 12.4897 24.75 11.25 24.75Z" fill="#0080C5" stroke="white"/>
<path d="M52.875 23.0989C52.254 23.0989 51.75 22.5949 51.75 21.9739V20.2864C51.75 19.6654 52.254 19.1614 52.875 19.1614C53.496 19.1614 54 19.6654 54 20.2864V21.9739C54 22.5949 53.496 23.0989 52.875 23.0989Z" fill="#0080C5" stroke="white"/>
<path d="M52.875 29.1956C52.254 29.1956 51.75 28.6916 51.75 28.0706V26.3831C51.75 25.7621 52.254 25.2581 52.875 25.2581C53.496 25.2581 54 25.7621 54 26.3831V28.0706C54 28.6916 53.496 29.1956 52.875 29.1956Z" fill="#0080C5" stroke="white"/>
<path d="M37.4516 50.516C31.2085 50.516 26.129 45.4365 26.129 39.1934C26.129 32.9503 31.2085 27.8708 37.4516 27.8708C43.6947 27.8708 48.7742 32.9503 48.7742 39.1934C48.7742 45.4365 43.6947 50.516 37.4516 50.516ZM37.4516 29.6128C32.1683 29.6128 27.871 33.9101 27.871 39.1934C27.871 44.4767 32.1683 48.7741 37.4516 48.7741C42.7349 48.7741 47.0323 44.4767 47.0323 39.1934C47.0323 33.9101 42.7349 29.6128 37.4516 29.6128Z" fill="#0080C5" stroke="white" stroke-width="0.5"/>
<path d="M34.8454 45.2904V43.1582H33.4814V42.1392H34.8454V40.7439H33.4814V39.5524H34.8454V34.0967H37.7927C39.1619 34.0967 40.1757 34.3736 40.8342 34.9276C41.5031 35.4815 41.8375 36.2863 41.8375 37.3419C41.8375 38.408 41.4769 39.2441 40.7558 39.8503C40.0346 40.446 38.9738 40.7439 37.5733 40.7439H36.2563V42.1392H38.8431V43.1582H36.2563V45.2904H34.8454ZM37.3694 39.5524C38.3205 39.5524 39.0574 39.3956 39.58 39.0821C40.113 38.7686 40.3795 38.2042 40.3795 37.3889C40.3795 36.6782 40.16 36.1504 39.7211 35.8055C39.2821 35.4606 38.5975 35.2882 37.6673 35.2882H36.2563V39.5524H37.3694Z" fill="#0080C5"/>
</g>
<defs>
<clipPath id="clip0_10_191">
<rect width="54" height="54" fill="white"/>
</clipPath>
</defs>
</svg>
