<svg width="60" height="60" viewBox="0 0 60 60" fill="none" xmlns="http://www.w3.org/2000/svg">
<path d="M56.1576 29.8593C56.1576 28.8907 56.7726 27.6207 57.3676 26.3921C58.309 24.4486 59.2819 22.4386 58.6069 20.4221C57.924 18.3807 55.8347 17.3379 53.9912 16.4186C52.834 15.8414 51.6369 15.2443 51.1362 14.5643C50.6319 13.8793 50.4262 12.5579 50.2283 11.28C49.9176 9.27857 49.5647 7.01072 47.8547 5.76286C46.1483 4.51929 43.8655 4.86071 41.8512 5.16214C40.5476 5.35786 39.1997 5.56 38.3576 5.28071C37.5354 5.00857 36.5726 4.07071 35.6412 3.16429C34.1176 1.68071 32.3912 0 30.1297 0C27.8683 0 26.1419 1.68143 24.619 3.16429C23.6876 4.07071 22.7247 5.00857 21.9033 5.28071C21.0612 5.56 19.7133 5.35786 18.409 5.16214C16.3947 4.86071 14.1126 4.51857 12.4055 5.76286C10.6947 7.01072 10.3426 9.27857 10.0319 11.28C9.83331 12.5579 9.62831 13.88 9.12402 14.5643C8.62331 15.2443 7.42617 15.8414 6.26902 16.4186C4.42545 17.3386 2.33617 18.3807 1.65331 20.4221C0.978309 22.4393 1.95188 24.4493 2.89259 26.3929C3.48759 27.6214 4.10259 28.8914 4.10259 29.86C4.10259 30.8286 3.48759 32.0979 2.89259 33.3264C1.95188 35.27 0.978309 37.28 1.65331 39.2971C2.33617 41.3386 4.42545 42.3807 6.26902 43.3007C7.42617 43.8779 8.62331 44.475 9.12402 45.155C9.62831 45.84 9.83402 47.1614 10.0319 48.4393C10.3426 50.44 10.6955 52.7086 12.4055 53.9557C14.1119 55.2007 16.3947 54.8579 18.409 54.5564C19.7133 54.3614 21.0612 54.1593 21.9033 54.4386C22.7255 54.7107 23.6883 55.6486 24.6197 56.555C26.1433 58.0379 27.869 59.7186 30.1305 59.7186C32.3919 59.7186 34.1183 58.0379 35.6412 56.555C36.5726 55.6486 37.5354 54.7107 38.3576 54.4386C39.199 54.1593 40.5469 54.3614 41.8512 54.5571C43.8655 54.8586 46.1483 55.2007 47.8547 53.9564C49.5654 52.7086 49.9176 50.4407 50.2283 48.4393C50.4269 47.1614 50.6319 45.84 51.1362 45.155C51.6369 44.475 52.834 43.8779 53.9912 43.3007C55.8347 42.3807 57.924 41.3386 58.6069 39.2971C59.2819 37.28 58.3083 35.27 57.3676 33.3264C56.7726 32.0979 56.1576 30.8279 56.1576 29.8593ZM54.6912 34.6093C55.3754 36.0221 56.0826 37.4829 55.7883 38.3629C55.4933 39.2436 54.0526 39.9621 52.659 40.6579C51.1869 41.3929 49.664 42.1521 48.7397 43.4071C47.8062 44.6743 47.5447 46.3586 47.2919 47.9879C47.0583 49.4921 46.8162 51.0479 46.0976 51.5721C45.379 52.0964 43.8105 51.8614 42.2933 51.6336C40.6433 51.3864 38.9369 51.1307 37.419 51.6336C35.9469 52.1207 34.7355 53.3007 33.5633 54.4421C32.3919 55.5829 31.1797 56.7621 30.1305 56.7621C29.0812 56.7621 27.869 55.5829 26.6976 54.4421C25.5255 53.3007 24.3133 52.1207 22.8419 51.6336C22.2026 51.4221 21.5297 51.345 20.8419 51.345C19.8962 51.345 18.9226 51.4907 17.9676 51.6336C16.4512 51.8614 14.8819 52.0964 14.1633 51.5714C13.4447 51.0471 13.2033 49.4914 12.969 47.9879C12.7162 46.3593 12.4547 44.675 11.5212 43.4071C10.5969 42.1514 9.07402 41.3921 7.60188 40.6579C6.20831 39.9629 4.76759 39.2436 4.47259 38.3629C4.17831 37.4829 4.88545 36.0221 5.56974 34.6093C6.30902 33.0821 7.07402 31.5029 7.07402 29.8593C7.07402 28.2157 6.30902 26.6364 5.56974 25.1093C4.88545 23.6964 4.17831 22.2357 4.47259 21.3557C4.76759 20.475 6.20831 19.7564 7.60117 19.0614C9.07331 18.3264 10.5962 17.5671 11.5205 16.3121C12.454 15.045 12.7155 13.3607 12.9683 11.7314C13.2019 10.2271 13.444 8.67143 14.1619 8.14786C14.8812 7.62429 16.4505 7.85857 17.9669 8.08571C19.6169 8.33357 21.3226 8.58928 22.8412 8.08643C24.3133 7.59929 25.5247 6.41857 26.6969 5.27786C27.8683 4.13714 29.0805 2.95714 30.1297 2.95714C31.179 2.95714 32.3912 4.13714 33.5626 5.27786C34.7347 6.41857 35.9469 7.59929 37.4183 8.08643C38.9362 8.58928 40.6419 8.33357 42.2926 8.08571C43.8097 7.85786 45.3783 7.62357 46.0969 8.14786C46.8154 8.67214 47.0576 10.2279 47.2912 11.7321C47.544 13.3607 47.8054 15.045 48.739 16.3129C49.664 17.5686 51.1862 18.3279 52.6583 19.0621C54.0519 19.7571 55.4926 20.4764 55.7876 21.3571C56.0819 22.2371 55.3747 23.6979 54.6904 25.1107C53.9512 26.6364 53.1869 28.2157 53.1869 29.8593C53.1869 31.5029 53.9512 33.0821 54.6912 34.6093ZM30.1297 11.9121C20.1847 11.9121 12.0933 19.9636 12.0933 29.8593C12.0933 39.755 20.1847 47.8064 30.1297 47.8064C40.0747 47.8064 48.1662 39.7557 48.1662 29.8593C48.1662 19.9629 40.0747 11.9121 30.1297 11.9121ZM30.1297 44.85C21.8226 44.85 15.064 38.125 15.064 29.8593C15.064 21.5936 21.8226 14.8686 30.1297 14.8686C38.4369 14.8686 45.1947 21.5936 45.1947 29.8593C45.1947 38.125 38.4369 44.85 30.1297 44.85ZM37.8997 23.73C38.5205 24.2636 38.5883 25.1971 38.0519 25.8143L29.3397 35.8379C29.0605 36.1593 28.6562 36.3457 28.2297 36.3493C28.2255 36.3493 28.2205 36.3493 28.2162 36.3493C27.7947 36.3493 27.3926 36.1707 27.1105 35.8586L22.2254 30.4436C21.6776 29.8364 21.7283 28.9014 22.3383 28.3564C22.9483 27.8107 23.8876 27.8614 24.4362 28.4693L28.1947 32.6357L35.8047 23.8807C36.3412 23.2629 37.2797 23.195 37.8997 23.73Z" fill="#0080C5"/>
</svg>
