<svg width="60" height="60" viewBox="0 0 60 60" fill="none" xmlns="http://www.w3.org/2000/svg">
<path d="M30 58.3783C29.8818 58.3784 29.765 58.3527 29.6578 58.3029C15.5554 51.7386 7.13513 40.4213 7.13513 28.0297V10.9135C7.13509 10.8005 7.15866 10.6888 7.20431 10.5855C7.24997 10.4821 7.31672 10.3895 7.40027 10.3135C7.48373 10.2369 7.58241 10.1789 7.68986 10.1431C7.79731 10.1073 7.9111 10.0947 8.02378 10.1059C16.9354 10.9605 23.9254 8.27753 29.3838 1.90537C29.4599 1.81637 29.5544 1.74491 29.6608 1.69593C29.7672 1.64694 29.8829 1.62157 30 1.62158C30.1172 1.62177 30.233 1.64739 30.3394 1.69666C30.4458 1.74593 30.5402 1.81769 30.6162 1.90699C35.9562 8.17699 42.9511 10.8648 51.9868 10.1051C52.0988 10.0958 52.2115 10.1098 52.3177 10.1464C52.424 10.1829 52.5215 10.2412 52.6041 10.3174C52.6867 10.3936 52.7525 10.4862 52.7974 10.5893C52.8423 10.6923 52.8652 10.8035 52.8649 10.9159V28.0297C52.8675 28.842 52.8285 29.6538 52.7481 30.4621C52.5679 32.4465 52.1667 34.4046 51.5522 36.3C51.2898 37.1414 50.9835 37.9685 50.6343 38.7778C49.7621 40.8301 48.6718 42.7826 47.3822 44.6019C47.22 44.8451 47.0303 45.1046 46.8397 45.3632C42.4846 50.9638 36.8191 55.4075 30.3422 58.3029C30.235 58.3527 30.1182 58.3784 30 58.3783ZM8.75675 11.7948V28.0297C8.75675 39.6746 16.6905 50.3586 30 56.6756C36.0887 53.902 41.4157 49.6961 45.5262 44.417C45.7095 44.1737 45.883 43.937 46.0411 43.6962C47.2712 41.9642 48.3107 40.1045 49.1416 38.1494C49.4703 37.3874 49.7591 36.6088 50.0068 35.8167C50.5866 34.0286 50.9644 32.1811 51.133 30.3089C51.2094 29.5516 51.2462 28.7908 51.2432 28.0297V11.7851C42.4054 12.3243 35.4381 9.65672 30 3.65915C24.4524 9.7532 17.4868 12.4208 8.75675 11.7948Z" fill="#0080C5" stroke="white" stroke-width="0.3"/>
<path d="M47.0522 31.1919C47.0183 31.1921 46.9845 31.1899 46.9509 31.1854C46.7376 31.1587 46.5436 31.0483 46.4116 30.8787C46.2797 30.709 46.2205 30.4938 46.2471 30.2805C46.3378 29.5337 46.3817 28.782 46.3784 28.0297C46.3774 27.8147 46.4618 27.608 46.613 27.4552C46.7643 27.3024 46.9702 27.2159 47.1852 27.2149C47.4002 27.2138 47.6069 27.2982 47.7597 27.4495C47.9125 27.6008 47.999 27.8066 48.0001 28.0216V28.0297C48.0035 28.8492 47.9553 29.6681 47.8557 30.4816C47.8313 30.6775 47.7361 30.8578 47.5882 30.9886C47.4402 31.1193 47.2497 31.1916 47.0522 31.1919Z" fill="#0080C5" stroke="white" stroke-width="0.3"/>
<path d="M44.537 39.2756C44.3974 39.2755 44.2602 39.2394 44.1386 39.1707C44.0171 39.102 43.9154 39.0031 43.8433 38.8835C43.7712 38.764 43.7312 38.6278 43.7271 38.4883C43.7231 38.3487 43.7552 38.2105 43.8202 38.087C44.2192 37.334 44.5744 36.5587 44.884 35.7648C44.9223 35.6655 44.9799 35.5746 45.0533 35.4975C45.1267 35.4204 45.2146 35.3585 45.312 35.3154C45.4093 35.2722 45.5142 35.2487 45.6207 35.2461C45.7271 35.2435 45.8331 35.2619 45.9324 35.3002C46.0317 35.3385 46.1226 35.3961 46.1997 35.4695C46.2768 35.5429 46.3387 35.6308 46.3818 35.7282C46.425 35.8255 46.4485 35.9304 46.4511 36.0369C46.4537 36.1433 46.4353 36.2492 46.397 36.3486C46.0648 37.2014 45.6833 38.0341 45.2546 38.8426C45.1857 38.9733 45.0825 39.0827 44.956 39.159C44.8296 39.2353 44.6847 39.2757 44.537 39.2756Z" fill="#0080C5" stroke="white" stroke-width="0.3"/>
<path d="M30 52.9541C29.8684 52.9538 29.7388 52.9218 29.6222 52.8609C18.5878 47.0498 12 37.7668 12 28.0298V15.9C11.9998 15.6916 12.0798 15.491 12.2236 15.34C12.3673 15.1891 12.5637 15.0992 12.7719 15.0892C18.9036 14.8787 24.7864 12.6124 29.4746 8.65463C29.6208 8.53158 29.8057 8.46411 29.9968 8.46411C30.1878 8.46411 30.3728 8.53158 30.5189 8.65463C35.2302 12.5727 41.107 14.819 47.2305 15.0422C47.4379 15.0534 47.6331 15.1438 47.7758 15.2946C47.9185 15.4455 47.9979 15.6453 47.9976 15.853V22.3476C47.9976 22.5626 47.9122 22.7689 47.7601 22.9209C47.608 23.073 47.4018 23.1584 47.1868 23.1584C46.9717 23.1584 46.7655 23.073 46.6134 22.9209C46.4614 22.7689 46.376 22.5626 46.376 22.3476V16.6111C40.4021 16.2432 34.6856 14.0488 30 10.3249C25.3325 14.0896 19.6074 16.3054 13.6216 16.6638V28.0298C13.6216 37.1798 19.5843 45.6146 30 51.2246C33.7235 49.2718 37.0827 46.6919 39.93 43.5981C40.0006 43.5166 40.0867 43.45 40.1833 43.4021C40.2799 43.3542 40.3851 43.3261 40.4927 43.3194C40.6003 43.3127 40.7082 43.3276 40.81 43.363C40.9118 43.3985 41.0056 43.454 41.0857 43.5261C41.1658 43.5983 41.2308 43.6857 41.2767 43.7832C41.3226 43.8808 41.3487 43.9865 41.3532 44.0942C41.3578 44.202 41.3409 44.3095 41.3034 44.4106C41.2659 44.5117 41.2086 44.6043 41.1349 44.683C38.0606 48.0232 34.4186 50.792 30.3778 52.8609C30.2612 52.9218 30.1316 52.9538 30 52.9541Z" fill="#0080C5" stroke="white" stroke-width="0.3"/>
</svg>
