<svg width="55" height="55" viewBox="0 0 55 55" fill="none" xmlns="http://www.w3.org/2000/svg">
<g clip-path="url(#clip0_10_211)">
<path d="M52.3387 0H49.6774H31.9355H19.0202C17.8732 0 16.8584 0.730968 16.4947 1.81944L16.2152 2.66129H13.3065C11.8392 2.66129 10.6452 3.85532 10.6452 5.32258V6.47137C8.08411 7.23694 6.20968 9.61258 6.20968 12.4194C6.20968 14.2725 7.03024 15.934 8.32185 17.0731C6.33742 18.582 4.97927 20.8122 4.57919 23.2898C1.9454 24.0075 0 26.4151 0 29.2742C0 32.6975 2.78637 35.4839 6.20968 35.4839V40.8064H10.206C10.536 42.0883 11.0452 43.3143 11.7265 44.464L8.89758 47.2938L13.9159 52.3121L16.7457 49.4831C17.8954 50.1644 19.1214 50.6736 20.4032 51.0036V55H27.5V51.0036C28.7819 50.6736 30.0078 50.1644 31.1575 49.4831L33.9873 52.3121L39.0056 47.2938L36.1767 44.464C36.858 43.3143 37.3672 42.0883 37.6972 40.8064H41.6935V33.7097H37.6972C37.3672 32.4278 36.858 31.2019 36.1767 30.0522L38.728 27.5H49.6774V15.9677V14.1935H52.3387C53.806 14.1935 55 12.9995 55 11.5323V2.66129C55 1.19403 53.806 0 52.3387 0ZM39.9194 1.77419C41.3866 1.77419 42.5806 2.96823 42.5806 4.43548C42.5806 5.90274 41.3866 7.09677 39.9194 7.09677C38.4521 7.09677 37.2581 5.90274 37.2581 4.43548C37.2581 2.96823 38.4521 1.77419 39.9194 1.77419ZM33.7097 1.77419H36.394C35.8307 2.51758 35.4839 3.43306 35.4839 4.43548C35.4839 6.88121 37.4736 8.87097 39.9194 8.87097C40.9218 8.87097 41.8373 8.52411 42.5806 7.96081V14.1935H33.7097V1.77419ZM26.4497 1.77419C26.0824 2.80411 25.1066 3.54839 23.9516 3.54839C22.7966 3.54839 21.8208 2.80411 21.4535 1.77419H26.4497ZM7.98387 12.4194C7.98387 9.97363 9.97363 7.98387 12.4194 7.98387C14.8651 7.98387 16.8548 9.97363 16.8548 12.4194C16.8548 14.8651 14.8651 16.8548 12.4194 16.8548C11.5101 16.8548 10.6638 16.5781 9.95944 16.1061L9.93548 16.0573C9.92661 16.0618 9.91952 16.0671 9.91064 16.0715C8.74944 15.2705 7.98387 13.9336 7.98387 12.4194ZM9.92306 18.1012C10.1564 18.2041 10.3977 18.2937 10.6452 18.3682V24.9381C9.5354 23.807 8.01935 23.131 6.40927 23.0787C6.875 21.0331 8.14798 19.2314 9.92306 18.1012ZM6.20968 33.7097C3.76395 33.7097 1.77419 31.7199 1.77419 29.2742C1.77419 26.8285 3.76395 24.8387 6.20968 24.8387C7.54831 24.8387 8.8071 25.4552 9.64274 26.4763L8.89669 27.2223L11.7256 30.0522C11.0444 31.2019 10.5352 32.4278 10.2052 33.7097H7.09677H6.20968ZM36.371 27.3483L33.9102 29.8091L34.3102 30.4132C35.1973 31.7536 35.8077 33.22 36.1217 34.7733L36.2663 35.4839H39.9194V39.0323H36.2663L36.1217 39.7428C35.8077 41.2961 35.1973 42.7625 34.3102 44.1029L33.9102 44.707L36.4978 47.2947L33.9882 49.8043L31.4006 47.2166L30.7965 47.6167C29.456 48.5038 27.9897 49.1141 26.4364 49.4281L25.7258 49.5727V53.2258H22.1774V49.5727L21.4669 49.4281C19.9135 49.1141 18.4472 48.5038 17.1068 47.6167L16.5027 47.2166L13.915 49.8043L11.4054 47.2947L13.9931 44.707L13.593 44.1029C12.7059 42.7625 12.0956 41.2961 11.7815 39.7428L11.6369 39.0323H7.98387V35.4839H11.6369L11.7815 34.7733C12.0956 33.22 12.7059 31.7536 13.593 30.4132L13.9931 29.8091L11.4054 27.2215L13.915 24.7119L16.5027 27.2995L17.1068 26.8994C18.4472 26.0123 19.9135 25.402 21.4669 25.088L22.1774 24.9434V21.2903H25.7258V24.9434L26.4364 25.088C27.9897 25.402 29.456 26.0123 30.7965 26.8994L31.4006 27.2995L33.9882 24.7119L36.371 27.0955V27.3483ZM47.9032 25.7258H37.51L33.9873 22.2031L31.1575 25.0321C30.0078 24.3508 28.7819 23.8416 27.5 23.5116V19.5161H20.4032V23.5125C19.1214 23.8425 17.8954 24.3517 16.7457 25.033L13.9159 22.204L12.4194 23.6997V18.629C15.8427 18.629 18.629 15.8427 18.629 12.4194C18.629 8.99605 15.8427 6.20968 12.4194 6.20968V5.32258C12.4194 4.8329 12.8168 4.43548 13.3065 4.43548H17.4944L18.1784 2.38097C18.2999 2.01726 18.6388 1.77419 19.0202 1.77419H19.6057C20.0182 3.79589 21.8102 5.32258 23.9516 5.32258C26.0931 5.32258 27.885 3.79589 28.2975 1.77419H31.9355V11.5553C31.1921 10.992 30.2766 10.6452 29.2742 10.6452C26.8285 10.6452 24.8387 12.6349 24.8387 15.0806C24.8387 17.5264 26.8285 19.5161 29.2742 19.5161C31.4156 19.5161 33.2076 17.9894 33.6201 15.9677H47.9032V25.7258ZM31.9355 15.0806C31.9355 16.5479 30.7415 17.7419 29.2742 17.7419C27.8069 17.7419 26.6129 16.5479 26.6129 15.0806C26.6129 13.6134 27.8069 12.4194 29.2742 12.4194C30.7415 12.4194 31.9355 13.6134 31.9355 15.0806ZM53.2258 11.5323C53.2258 12.0219 52.8284 12.4194 52.3387 12.4194H49.6774V10.6452H47.9032V12.4194V14.1935H44.3548V4.43548C44.3548 3.43306 44.008 2.51758 43.4447 1.77419H47.9032V8.87097H49.6774V1.77419H52.3387C52.8284 1.77419 53.2258 2.17161 53.2258 2.66129V11.5323Z" fill="#0080C5" stroke="white" stroke-width="0.5"/>
<path d="M6.20963 26.6128C4.74237 26.6128 3.54834 27.8068 3.54834 29.2741C3.54834 30.7413 4.74237 31.9354 6.20963 31.9354C7.67689 31.9354 8.87092 30.7413 8.87092 29.2741C8.87092 27.8068 7.67689 26.6128 6.20963 26.6128ZM6.20963 30.1612C5.71995 30.1612 5.32253 29.7638 5.32253 29.2741C5.32253 28.7844 5.71995 28.387 6.20963 28.387C6.69931 28.387 7.09673 28.7844 7.09673 29.2741C7.09673 29.7638 6.69931 30.1612 6.20963 30.1612Z" fill="#0080C5" stroke="white" stroke-width="0.5"/>
<path d="M12.4193 15.0809C13.8866 15.0809 15.0806 13.8869 15.0806 12.4196C15.0806 10.9523 13.8866 9.7583 12.4193 9.7583C10.9521 9.7583 9.75806 10.9523 9.75806 12.4196C9.75806 13.8869 10.9521 15.0809 12.4193 15.0809ZM12.4193 11.5325C12.909 11.5325 13.3064 11.9299 13.3064 12.4196C13.3064 12.9093 12.909 13.3067 12.4193 13.3067C11.9297 13.3067 11.5322 12.9093 11.5322 12.4196C11.5322 11.9299 11.9297 11.5325 12.4193 11.5325Z" fill="#0080C5" stroke="white" stroke-width="0.5"/>
<path d="M23.9517 28.3872C19.0602 28.3872 15.0807 32.3667 15.0807 37.2582C15.0807 42.1496 19.0602 46.1291 23.9517 46.1291C25.6336 46.1291 27.2721 45.6554 28.6896 44.7586L27.7404 43.2603C26.6076 43.9762 25.2983 44.3549 23.9517 44.3549C20.0387 44.3549 16.8549 41.1712 16.8549 37.2582C16.8549 33.3452 20.0387 30.1614 23.9517 30.1614C27.8646 30.1614 31.0484 33.3452 31.0484 37.2582C31.0484 39.1441 30.3166 40.9192 28.9877 42.2587L30.2474 43.5078C31.908 41.8347 32.8226 39.6152 32.8226 37.2582C32.8226 32.3667 28.8431 28.3872 23.9517 28.3872Z" fill="#0080C5" stroke="white" stroke-width="0.5"/>
<path d="M23.9516 31.9355C21.0162 31.9355 18.629 34.3227 18.629 37.2581C18.629 40.1935 21.0162 42.5807 23.9516 42.5807C26.887 42.5807 29.2742 40.1935 29.2742 37.2581C29.2742 34.3227 26.887 31.9355 23.9516 31.9355ZM23.9516 40.8065C21.9947 40.8065 20.4032 39.2151 20.4032 37.2581C20.4032 35.3012 21.9947 33.7097 23.9516 33.7097C25.9085 33.7097 27.5 35.3012 27.5 37.2581C27.5 39.2151 25.9085 40.8065 23.9516 40.8065Z" fill="#0080C5" stroke="white" stroke-width="0.5"/>
</g>
<defs>
<clipPath id="clip0_10_211">
<rect width="55" height="55" fill="white"/>
</clipPath>
</defs>
</svg>
