<svg width="65" height="65" viewBox="0 0 65 65" fill="none" xmlns="http://www.w3.org/2000/svg">
<path d="M29.7117 5.75532C29.8243 5.83622 29.9544 5.8748 30.0832 5.8748C30.2811 5.8748 30.4765 5.78269 30.601 5.60969C30.8063 5.32467 30.7416 4.92639 30.456 4.71978C29.7185 4.18956 28.9176 3.74896 28.0762 3.41291C27.7489 3.28097 27.3786 3.44153 27.2473 3.76763C27.1166 4.09373 27.2753 4.46463 27.602 4.59531C28.3482 4.89403 29.0583 5.28485 29.7117 5.75532Z" fill="#0080C5"/>
<path d="M32.7082 8.50088C32.8339 8.50088 32.9609 8.46354 33.0717 8.38638C33.3604 8.18476 33.4314 7.78771 33.2303 7.49895C32.8514 6.95504 32.4325 6.45595 31.9509 5.97179C31.7026 5.72286 31.2993 5.7241 31.0497 5.97054C30.8002 6.21946 30.8002 6.62273 31.0485 6.8729C31.4767 7.3023 31.8488 7.74539 32.1848 8.22832C32.3087 8.40629 32.5066 8.50088 32.7082 8.50088Z" fill="#0080C5"/>
<path d="M25.8776 4.0638C25.9255 4.075 25.9741 4.07999 26.0213 4.07999C26.3113 4.07999 26.5734 3.88085 26.6418 3.58586C26.7208 3.24359 26.5068 2.90131 26.1639 2.82165C25.3797 2.64118 24.5558 2.54907 23.7144 2.54907C23.3622 2.54907 23.0771 2.83409 23.0771 3.18633C23.0771 3.53856 23.3622 3.82358 23.7144 3.82358C24.4593 3.82358 25.1868 3.90449 25.8776 4.0638Z" fill="#0080C5"/>
<path d="M49.0783 43.1604L47.5479 40.9744C48.2372 39.7755 48.1234 38.2193 47.1423 37.1451C46.5809 36.5317 45.8216 36.1728 44.9989 36.1129C45.5369 34.9528 45.3665 33.5298 44.452 32.5299C43.4566 31.4425 42.3341 31.515 42.2044 31.4833C42.7236 30.2371 42.5201 28.7446 41.5495 27.6833C40.9033 26.9763 39.9895 26.5257 38.9151 26.5458C39.4961 25.1753 39.2757 23.5264 38.2008 22.3475C37.1324 21.173 35.4153 20.7147 33.8115 21.4164L31.8127 18.575C33.4506 15.5045 33.2353 11.7519 31.2283 8.90294C29.7901 6.85177 27.6475 5.50508 25.1937 5.10929C24.0885 4.93629 22.9863 4.95744 21.9147 5.17526C21.7044 5.21882 21.5295 5.36568 21.4505 5.56482C21.3714 5.76522 21.3982 5.99173 21.522 6.16723L24.6946 10.6741C25.1333 11.2964 25.3032 12.0519 25.1744 12.8024C25.0456 13.5504 24.6355 14.2014 24.0318 14.6258C23.8165 14.7702 23.6373 14.8673 23.4531 14.9357C22.2495 15.446 20.8256 15.0328 20.0633 13.9475L16.8901 9.43941C16.7662 9.26391 16.5708 9.18052 16.3468 9.16933C16.1315 9.1768 15.9348 9.29255 15.8234 9.47675C13.9447 12.5896 14.0834 16.5251 16.1769 19.5036C18.2082 22.3936 21.6266 23.8573 25.0605 23.3134C25.0674 23.3134 25.0742 23.3122 25.0811 23.3122L25.1129 23.3577C24.2599 23.5699 23.4074 23.8245 22.5669 24.1672C19.0402 25.6197 16.6437 29.0288 16.4626 32.8511C16.3817 34.4865 16.4009 36.2477 16.5217 38.2341C16.6365 40.1916 16.1144 42.1004 15.0473 43.6903C14.2086 43.0146 12.9697 43.0226 12.148 43.7678L9.14533 46.572C8.7097 46.9665 8.45767 47.5092 8.43526 48.0991C8.41348 48.6854 8.62258 49.2417 9.01589 49.6549L20.0527 61.7279C20.4529 62.1685 20.9974 62.4249 21.5855 62.4486C21.616 62.4498 21.6458 62.451 21.6763 62.451C22.2346 62.451 22.766 62.2394 23.1805 61.8511L26.1913 59.0557C27.0669 58.2442 27.1229 56.8576 26.3145 55.964L26.3108 55.96L26.3356 55.9366C27.3009 55.0442 28.4795 54.4555 29.7478 54.2327L32.0734 53.8145C33.5907 53.5519 34.999 52.8512 36.1471 51.7895L41.5493 46.7624L42.3492 47.9C40.6894 50.9556 40.901 54.7032 42.923 57.5621C44.6611 60.0439 47.4721 61.474 50.4119 61.474C51.0175 61.474 51.628 61.4143 52.236 61.2898C52.4644 61.2425 52.6697 61.1019 52.7382 60.8791C52.8066 60.6563 52.768 60.4409 52.6056 60.2742L49.4567 55.791C48.5554 54.5137 48.8455 52.7362 50.15 51.8268C51.4679 50.8758 53.2522 51.2962 54.0886 52.5188L57.2612 57.0257C57.385 57.2012 57.5848 57.2945 57.8051 57.2957C58.0204 57.287 58.2171 57.1713 58.3279 56.9871C60.1044 54.0392 60.1581 50.0702 57.9738 46.9603C55.9537 44.0939 52.493 42.6364 49.0783 43.1604ZM46.0924 40.8043C45.9647 40.9229 40.9531 45.5755 41.2701 45.2813C41.2676 45.2838 41.2651 45.2863 41.2626 45.2887C41.2593 45.2914 41.2578 45.2961 41.2545 45.2988C40.4712 46.024 39.2408 45.9911 38.5001 45.178C37.7658 44.3764 37.8156 43.1218 38.6109 42.3825C38.7965 42.21 43.5716 37.7719 43.4426 37.8918C44.2084 37.1782 45.4485 37.1803 46.2032 38.0088C46.9375 38.8104 46.8877 40.065 46.0924 40.8043ZM37.2741 23.22C38.2506 24.2929 38.1802 25.9657 37.1136 26.9515C36.9859 27.0703 35.1177 28.8091 35.2454 28.6902C34.9871 28.9292 34.9722 29.3325 35.2112 29.5901C35.4513 29.8492 35.8554 29.863 36.1116 29.6237L37.4312 28.3963C38.3503 27.5625 39.7565 27.6117 40.6135 28.5471C41.4636 29.4768 41.4057 30.9293 40.4853 31.7844C40.3575 31.9032 38.8808 33.276 39.0085 33.1572C38.7509 33.3975 38.736 33.8007 38.9756 34.0584C39.2152 34.3146 39.6186 34.3312 39.876 34.0907L40.7563 33.2724C42.6394 31.5328 45.3255 34.4012 43.4021 36.1892C43.0285 36.5364 38.294 40.9373 38.5706 40.6802C37.7364 41.4554 36.5094 41.3295 35.8098 40.5628C35.0755 39.76 35.1253 38.5067 35.9206 37.7674C36.0483 37.6489 37.8968 35.9297 38.0153 35.8195C38.2729 35.5793 38.2879 35.176 38.0483 34.9184C37.8075 34.6608 37.4048 34.6458 37.1478 34.886L36.1079 35.8531C35.2049 36.6915 33.7802 36.6675 32.9073 35.7162C32.0572 34.7865 32.1151 33.334 33.0355 32.4789C33.1517 32.3712 33.2112 32.2288 33.2276 32.0826C33.9939 31.6939 34.2458 31.3216 34.7033 30.9293C34.961 30.6904 34.9759 30.2871 34.7363 30.0282C34.4961 29.7718 34.0928 29.7556 33.8358 29.9959C33.3628 30.3854 33.1745 30.7599 32.3792 31.0501C32.2623 30.3143 32.2412 30.5511 30.5471 25.8773C30.6786 25.7552 33.7738 22.8816 33.5782 23.0632C34.6388 22.0883 36.2603 22.1102 37.2741 23.22ZM24.8975 22.0501C21.9091 22.5218 18.9692 21.2597 17.2199 18.7717C15.6112 16.4828 15.3424 13.5392 16.4507 11.0288L19.0203 14.6793C20.1255 16.2526 22.1978 16.8562 23.9216 16.1206C24.1718 16.0285 24.4394 15.8866 24.7524 15.6775C25.648 15.0465 26.2442 14.1031 26.4308 13.0177C26.6169 11.9337 26.3705 10.8396 25.7363 9.93974L23.1649 6.28673C23.7679 6.2469 24.3809 6.27055 24.992 6.36764C27.1017 6.70742 28.9456 7.86743 30.1853 9.63605C31.9844 12.1901 32.1126 15.5854 30.512 18.2875C30.3844 18.5029 30.395 18.7742 30.5388 18.9783L32.7374 22.1048C31.2552 23.4799 29.8415 24.7912 29.9706 24.6713C29.1825 23.5474 27.8792 22.991 26.6732 23.0541C26.603 23.0572 26.5331 23.0576 26.4626 23.0645L25.8963 22.2542C25.7519 22.0476 25.4992 21.9468 25.2528 21.9928C25.1489 22.014 25.035 22.0351 24.8975 22.0501ZM35.2802 50.8548C34.3138 51.7484 33.1301 52.3384 31.8519 52.5599L29.525 52.9781C28.0172 53.2432 26.6157 53.9427 25.4657 55.0056L25.4512 55.0193L24.3853 53.8531C24.1476 53.5917 23.745 53.5743 23.4848 53.812C23.2253 54.0497 23.2073 54.453 23.4444 54.7119L24.9311 56.3389C24.9391 56.3484 24.9417 56.3606 24.9504 56.3697C24.9575 56.3773 24.9674 56.3796 24.9748 56.3867L25.3711 56.8203C25.7065 57.1912 25.6853 57.7874 25.3244 58.1222L22.3111 60.9189C22.1244 61.0944 21.8985 61.1753 21.6378 61.1753C21.3932 61.1653 21.1654 61.057 20.9955 60.8703L9.94813 48.7861C9.78508 48.6144 9.69983 48.3879 9.70916 48.1464C9.71849 47.9025 9.8218 47.6797 10.0079 47.5104L13.0112 44.7062C13.3902 44.3615 13.987 44.3851 14.3349 44.7473L14.5626 44.9965C14.6012 45.0638 14.6502 45.1267 14.7145 45.178C14.7233 45.185 14.734 45.1872 14.743 45.1937L21.6695 52.7702C21.9072 53.0316 22.3099 53.049 22.57 52.8113C22.8295 52.5736 22.8475 52.1703 22.6104 51.9115L15.9447 44.6204C17.2707 42.7576 17.9304 40.4883 17.7937 38.1582C17.6761 36.2178 17.6574 34.5027 17.7358 32.9121C17.8939 29.5814 19.9805 26.6105 23.0498 25.3459C24.1519 24.8978 25.2758 24.5655 26.3923 24.3589C27.5772 24.1424 28.7633 24.797 29.2076 25.9334L29.2083 25.9321C29.3485 26.3109 31.1479 31.1715 31.0329 30.8609C31.5279 32.2138 30.5753 33.8231 29.006 33.8231C29.0004 33.8231 28.9948 33.8231 28.9886 33.8231C28.1186 33.8129 27.277 33.287 26.9592 32.3918C26.503 31.1795 26.3064 29.6685 26.358 27.7705C26.3674 27.4182 26.0898 27.1257 25.7382 27.1158C25.3847 27.0834 25.0935 27.3834 25.0835 27.7356C25.0275 29.8017 25.2509 31.472 25.7619 32.8274C26.4018 34.641 29.9182 36.3379 28.7882 40.1048C28.6874 40.4421 28.8784 40.7969 29.2157 40.8977C29.2767 40.9163 29.3383 40.925 29.3987 40.925C29.6731 40.925 29.9264 40.7471 30.0092 40.4707C30.5603 38.6339 30.249 36.8589 29.0687 35.0914C29.8165 35.0773 30.5001 34.8176 31.0572 34.3989C31.1092 35.1831 31.4013 35.9567 31.9713 36.58C32.6033 37.2714 33.4626 37.674 34.3927 37.723C33.7827 38.9034 33.9241 40.3899 34.8713 41.4266C35.4328 42.04 36.1919 42.3977 37.0147 42.4576C36.4766 43.6172 36.6468 45.0407 37.561 46.0417C38.0515 46.5776 38.6946 46.9118 39.3968 47.0311L35.2802 50.8548ZM57.6987 55.4325L55.1353 51.792C53.8952 49.9836 51.3039 49.4304 49.4131 50.7863C47.5476 52.0893 47.1008 54.6606 48.4143 56.5241L50.9813 60.1796C48.2543 60.3762 45.5753 59.1291 43.9653 56.8278C42.1525 54.2663 42.0287 50.8771 43.6492 48.1949C44.0068 47.5995 43.2966 47.1943 42.4936 45.89C42.6227 45.7701 46.9693 41.7333 46.6992 41.9842L48.2674 44.2245C48.4124 44.4311 48.6663 44.5332 48.9152 44.4834C51.9764 43.8624 55.1216 45.1269 56.9313 47.6933C58.548 49.9963 58.7886 52.933 57.6987 55.4325Z" fill="#0080C5"/>
<path d="M12.7424 56.1668C12.5046 55.9055 12.102 55.888 11.8419 56.1258C11.5824 56.3635 11.5643 56.7667 11.8014 57.0256L12.6353 57.9379C12.8718 58.1979 13.2755 58.2169 13.5358 57.979C13.7953 57.7413 13.8134 57.338 13.5763 57.0792L12.7424 56.1668Z" fill="#0080C5"/>
<path d="M7.90443 45.2627C8.16518 45.0262 8.18447 44.6242 7.94861 44.3628C7.71027 44.1027 7.30825 44.0828 7.04812 44.3193C6.02814 45.244 5.41391 46.5795 5.36226 47.9847C5.3492 48.337 5.62364 48.6319 5.97525 48.6456C5.98335 48.6456 5.99144 48.6456 5.99952 48.6456C6.34055 48.6456 6.62308 48.3755 6.63552 48.032C6.6741 46.9828 7.14831 45.9485 7.90443 45.2627Z" fill="#0080C5"/>
<path d="M7.73076 50.922C7.49304 50.6606 7.09039 50.6432 6.83027 50.8809C6.57076 51.1186 6.55272 51.5219 6.78981 51.7808L7.62373 52.6931C7.86024 52.953 8.2639 52.972 8.52422 52.7342C8.78372 52.4964 8.80177 52.0932 8.56467 51.8343L7.73076 50.922Z" fill="#0080C5"/>
<path d="M10.2363 53.5432C9.99915 53.2843 9.59526 53.2657 9.33576 53.5034C9.07626 53.7411 9.05821 54.1444 9.29531 54.4045L10.1298 55.3168C10.3681 55.5764 10.7726 55.5933 11.0303 55.3567C11.2898 55.1189 11.3079 54.7157 11.0708 54.4555L10.2363 53.5432Z" fill="#0080C5"/>
</svg>
