<svg width="37" height="19" viewBox="0 0 37 19" fill="none" xmlns="http://www.w3.org/2000/svg">
<g clip-path="url(#clip0_8_15)">
<rect width="37" height="19" rx="9.5" fill="white"/>
<circle cx="9.5" cy="9.5" r="9.5" fill="#0080C5"/>
<path d="M9.38429 8.41064C9.97769 8.41064 10.4604 8.89935 10.4604 9.50006C10.4604 10.1008 9.97769 10.5895 9.38429 10.5895C8.79089 10.5895 8.30814 10.1008 8.30814 9.50006C8.30814 8.89935 8.79089 8.41064 9.38429 8.41064Z" fill="white"/>
<path d="M8.67139 5.10834L8.67139 7.07286C8.11872 7.23946 7.64563 7.59436 7.32504 8.0641L5.47927 7.45695C6.10701 6.23238 7.28044 5.33884 8.67139 5.10834Z" fill="white"/>
<path d="M5.03787 8.8291L6.8842 9.43643C6.88368 9.45765 6.88256 9.47875 6.88256 9.50006C6.88256 10.0785 7.07549 10.6118 7.39905 11.0386L6.25908 12.627C5.47366 11.8226 4.98794 10.7177 4.98794 9.50006C4.98794 9.27205 5.00504 9.04799 5.03787 8.8291Z" fill="white"/>
<path d="M9.3843 0L18.9114 0C19.305 0 19.6241 0.323063 19.6241 0.721553C19.6241 1.12004 19.305 1.44311 18.9114 1.44311L15.2063 1.44311C15.988 1.93868 16.6928 2.54731 17.298 3.24655L22.1427 3.24655C22.5363 3.2466 22.8554 3.5697 22.8554 3.96819C22.8554 4.36668 22.5363 4.68974 22.1427 4.68974L18.3292 4.68974C19.1515 6.10153 19.6242 7.74586 19.6242 9.50002C19.6242 11.5411 18.9848 13.4339 17.8985 14.9842L19.9209 14.9842C20.3145 14.9842 20.6336 15.3072 20.6336 15.7057C20.6336 16.1042 20.3145 16.4273 19.9209 16.4273L16.6544 16.4273C16.21 16.8493 15.7251 17.228 15.2063 17.5569L22.0691 17.5569C22.4628 17.5569 22.7819 17.88 22.7819 18.2784C22.7819 18.6769 22.4628 19 22.0691 19L9.3843 19C4.20969 19 -5.34058e-05 14.7383 -5.34058e-05 9.49998C-5.34058e-05 4.26168 4.20973 0 9.3843 0ZM5.92195 14.2353C5.93506 14.2465 5.94808 14.2578 5.96222 14.2681C5.97811 14.2798 5.9944 14.2907 6.01086 14.3009C6.96322 14.9887 8.12789 15.3937 9.3843 15.3937C10.6407 15.3937 11.8053 14.9887 12.7577 14.3009C12.7742 14.2907 12.7905 14.2798 12.8064 14.2681C12.8205 14.2577 12.8335 14.2464 12.8466 14.2353C14.2773 13.1604 15.2063 11.4381 15.2063 9.50002C15.2063 6.25021 12.5945 3.60628 9.3843 3.60628C6.17405 3.60628 3.56232 6.25021 3.56232 9.50002C3.56232 11.4381 4.49126 13.1604 5.92195 14.2353Z" fill="white"/>
<path d="M13.2892 7.45689L11.4435 8.06404C11.1228 7.59434 10.6497 7.23944 10.0971 7.0728L10.0971 5.10828C11.488 5.33882 12.6614 6.23232 13.2892 7.45689Z" fill="white"/>
<path d="M8.55157 11.8879C8.81222 11.9814 9.09233 12.0327 9.38426 12.0327C9.67611 12.0327 9.95631 11.9814 10.217 11.8879L11.3572 13.4766C10.7635 13.7796 10.0933 13.9507 9.38426 13.9507C8.67524 13.9507 8.00501 13.7797 7.41135 13.4766L8.55157 11.8879Z" fill="white"/>
<path d="M11.8862 9.50007C11.8862 9.47875 11.8851 9.45765 11.8846 9.43643L13.731 8.8291C13.7638 9.04799 13.7809 9.27205 13.7809 9.50007C13.7809 10.7178 13.2951 11.8226 12.5097 12.627L11.3697 11.0387C11.6932 10.6118 11.8862 10.0785 11.8862 9.50007Z" fill="white"/>
</g>
<defs>
<clipPath id="clip0_8_15">
<rect width="37" height="19" fill="white" transform="matrix(-1 0 0 1 37 0)"/>
</clipPath>
</defs>
</svg>
