<svg width="21" height="18" viewBox="0 0 21 18" fill="none" xmlns="http://www.w3.org/2000/svg">
<g clip-path="url(#clip0_6417_7552)">
<path d="M15.1147 13.9286L12.9441 11.7935C12.1688 11.0309 10.8509 11.336 10.5408 12.3273C10.3082 13.0136 9.53301 13.3949 8.8353 13.2423C7.28483 12.8611 5.19169 10.8784 4.80407 9.27705C4.5715 8.59072 5.03664 7.82816 5.73435 7.59943C6.74216 7.2944 7.05226 5.99806 6.27702 5.2355L4.10636 3.10034C3.48617 2.56655 2.55588 2.56655 2.01322 3.10034L0.540268 4.5492C-0.932682 6.07431 0.695315 10.1159 4.33893 13.6999C7.98254 17.2839 12.0913 18.9615 13.6418 17.4364L15.1147 15.9875C15.6574 15.3775 15.6574 14.4624 15.1147 13.9286Z" fill="white"/>
<path d="M11.018 3.90749L15.2048 0.0559443C15.2646 0.00112129 15.3537 -0.0147156 15.4328 0.0142434C15.511 0.0443608 15.5616 0.114641 15.5616 0.192631V2.31629H20.7908C20.9063 2.3163 21 2.40278 21 2.50935V5.59832C21 5.70489 20.9063 5.79139 20.7908 5.79139H15.5616V7.90693C15.5616 7.98492 15.5106 8.0552 15.4323 8.08532C15.4064 8.09537 15.3792 8.1 15.3524 8.1C15.298 8.1 15.2445 8.08031 15.2043 8.04362L11.0176 4.18087C10.9783 4.14458 10.9565 4.09553 10.9565 4.04418C10.9565 3.99283 10.9787 3.9438 11.018 3.90749Z" fill="white"/>
</g>
<defs>
<clipPath id="clip0_6417_7552">
<rect width="21" height="18" fill="white"/>
</clipPath>
</defs>
</svg>
