<svg width="24" height="24" viewBox="0 0 24 24" fill="none" xmlns="http://www.w3.org/2000/svg">
<g clip-path="url(#clip0_17_7)">
<path d="M14.4003 0H9.59969C4.96726 0 1.19861 3.76866 1.19861 8.40108V12.0015C1.19861 15.2538 3.07426 18.2052 5.99922 19.5935V23.603C5.99922 23.9512 6.43473 24.1332 6.68214 23.8859L10.1654 20.4026H14.4002C19.0326 20.4026 22.8013 16.634 22.8013 12.0015V8.40108C22.8013 3.76866 19.0326 0 14.4003 0Z" fill="#665CAC"/>
<path d="M18.0399 14.9111L17.6802 12.9627C17.6505 12.8017 17.5258 12.6751 17.3653 12.643L14.5365 12.0772C14.4051 12.0511 14.2697 12.0921 14.1751 12.1866L13.0259 13.3359C11.0895 12.4683 10.0149 11.3913 9.06933 9.37189L10.2149 8.22641C10.3094 8.13182 10.3505 7.99616 10.3243 7.865L9.75853 5.03619C9.72642 4.87574 9.59981 4.75096 9.43884 4.72124L7.49044 4.36161C7.43709 4.35181 7.38215 4.35285 7.32919 4.36489C6.81473 4.48175 6.34533 4.74097 5.97169 5.11471C5.32472 5.76167 5.07745 6.70574 5.2567 7.84485C5.55759 9.75763 6.49472 12.4196 8.2237 14.1555L8.24733 14.1789C9.98189 15.9067 12.6439 16.8439 14.5567 17.1448C14.7977 17.1828 15.0298 17.2016 15.2524 17.2016C16.0818 17.2016 16.7767 16.94 17.287 16.4298C17.6606 16.0561 17.9199 15.5867 18.0367 15.0724C18.0486 15.0193 18.0497 14.9645 18.0399 14.9111Z" fill="white"/>
<path d="M9.82365 8.61718L10.2148 8.22601L10.2152 8.22559L9.82361 8.61713L9.82365 8.61718Z" fill="#E5E5E5"/>
<path d="M14.175 12.1861L13.78 12.5811L13.7801 12.5811L14.1751 12.1862L14.175 12.1861Z" fill="#E5E5E5"/>
<path d="M16.0065 16.4469C15.784 16.4469 15.5519 16.4282 15.3109 16.3902C13.3981 16.0892 10.7361 15.152 9.00149 13.4243L8.97786 13.4008C7.24888 11.6649 6.31175 9.00296 6.01086 7.09018C5.86607 6.16989 5.99994 5.377 6.39786 4.76514C6.24547 4.86681 6.10246 4.98343 5.97144 5.11445C5.32447 5.76142 5.07721 6.70548 5.25646 7.84459C5.55735 9.75737 6.49447 12.4193 8.22346 14.1552L8.24708 14.1787C9.98165 15.9064 12.6436 16.8437 14.5565 17.1446C14.7975 17.1826 15.0296 17.2014 15.2521 17.2014C16.0816 17.2014 16.7765 16.9397 17.2867 16.4296C17.4177 16.2985 17.5343 16.1556 17.636 16.0032C17.1843 16.297 16.634 16.4469 16.0065 16.4469Z" fill="#E5E5E5"/>
<path d="M12.8002 6.80029C12.5793 6.80029 12.4001 6.9794 12.4001 7.20032C12.4001 7.42125 12.5793 7.60036 12.8002 7.60036C13.6826 7.60036 14.4004 8.3182 14.4004 9.20057C14.4004 9.41854 14.5825 9.60061 14.8004 9.60061C15.0184 9.60061 15.2005 9.41854 15.2005 9.20057C15.2005 7.87701 14.1237 6.80029 12.8002 6.80029Z" fill="white"/>
<path d="M12.8002 5.2002C12.6522 5.2002 12.5028 5.2084 12.3562 5.22457C12.1366 5.2488 11.9782 5.44648 12.0024 5.66613C12.0267 5.88579 12.2248 6.04376 12.444 6.0199C12.5616 6.00691 12.6814 6.00031 12.8002 6.00031C14.5649 6.00031 16.0006 7.43599 16.0006 9.2007C16.0006 9.31952 15.9939 9.43934 15.981 9.5569C15.9571 9.77351 16.118 9.9746 16.3347 9.99846C16.5514 10.0223 16.7523 9.8614 16.7763 9.6447C16.7925 9.49807 16.8007 9.34873 16.8007 9.2007C16.8007 6.99485 15.0061 5.2002 12.8002 5.2002Z" fill="white"/>
<path d="M12.8006 3.6001C12.6577 3.6001 12.5129 3.60554 12.3704 3.61636C12.1501 3.63305 11.985 3.82524 12.0016 4.0455C12.0183 4.26582 12.2111 4.43091 12.4308 4.41422C12.5533 4.40489 12.6777 4.40021 12.8006 4.40021C15.4477 4.40021 17.6012 6.55374 17.6012 9.20082C17.6012 9.57535 17.558 9.94819 17.4728 10.3089C17.4239 10.5157 17.5512 10.7305 17.7562 10.7867C17.9719 10.8458 18.2001 10.7105 18.2514 10.493C18.3509 10.072 18.4014 9.63727 18.4014 9.20082C18.4014 6.11255 15.8889 3.6001 12.8006 3.6001Z" fill="white"/>
</g>
<defs>
<clipPath id="clip0_17_7">
<rect width="24" height="24" fill="white"/>
</clipPath>
</defs>
</svg>
