<svg width="23" height="23" viewBox="0 0 23 23" fill="none" xmlns="http://www.w3.org/2000/svg">
<g clip-path="url(#clip0_17_0)">
<path d="M0.534302 22.5105L2.0827 16.8561C1.12759 15.2012 0.625198 13.3239 0.6259 11.4007C0.628357 5.38416 5.52449 0.489258 11.5409 0.489258C14.4604 0.490486 17.2008 1.62687 19.2616 3.68941C21.3223 5.75196 22.4567 8.4936 22.4557 11.4095C22.453 17.4259 17.5562 22.3215 11.5409 22.3215C11.5405 22.3215 11.541 22.3215 11.5409 22.3215H11.5361C9.70942 22.3208 7.91465 21.8626 6.32045 20.9931L0.534302 22.5105ZM6.5884 19.0178L6.91988 19.2141C8.31245 20.0406 9.90911 20.4777 11.5374 20.4786H11.5409C16.5409 20.4786 20.6105 16.4097 20.6126 11.4088C20.6135 8.98528 19.6708 6.70637 17.958 4.99215C16.245 3.27792 13.9675 2.33334 11.5442 2.33228C6.54015 2.33228 2.47068 6.4007 2.46875 11.4014C2.46805 13.1151 2.94745 14.7839 3.85571 16.2281L4.07155 16.5713L3.15486 19.918L6.5884 19.0178Z" fill="white"/>
<path d="M0.913818 22.1295L2.4087 16.6706C1.4864 15.0731 1.00156 13.2606 1.00208 11.4043C1.00436 5.596 5.73116 0.870605 11.5389 0.870605C14.3577 0.871834 17.0034 1.96891 18.9924 3.96004C20.982 5.95116 22.0769 8.59787 22.0759 11.4125C22.0734 17.2209 17.3465 21.9469 11.5394 21.9469C11.5389 21.9469 11.5396 21.9469 11.5394 21.9469H11.5347C9.77132 21.9462 8.0385 21.5036 6.49957 20.6648L0.913818 22.1295Z" fill="#64B161"/>
<path d="M0.534302 22.5105L2.0827 16.8561C1.12759 15.2012 0.625198 13.3239 0.6259 11.4007C0.628357 5.38416 5.52449 0.489258 11.5409 0.489258C14.4604 0.490486 17.2008 1.62687 19.2616 3.68941C21.3223 5.75196 22.4567 8.4936 22.4557 11.4095C22.453 17.4259 17.5562 22.3215 11.5409 22.3215C11.5405 22.3215 11.541 22.3215 11.5409 22.3215H11.5361C9.70942 22.3208 7.91465 21.8626 6.32045 20.9931L0.534302 22.5105ZM6.5884 19.0178L6.91988 19.2141C8.31245 20.0406 9.90911 20.4777 11.5374 20.4786H11.5409C16.5409 20.4786 20.6105 16.4097 20.6126 11.4088C20.6135 8.98528 19.6708 6.70637 17.958 4.99215C16.245 3.27792 13.9675 2.33334 11.5442 2.33228C6.54015 2.33228 2.47068 6.4007 2.46875 11.4014C2.46805 13.1151 2.94745 14.7839 3.85571 16.2281L4.07155 16.5713L3.15486 19.918L6.5884 19.0178Z" fill="white"/>
<path fill-rule="evenodd" clip-rule="evenodd" d="M8.81295 6.83898C8.60869 6.38484 8.39356 6.37572 8.19913 6.36782C8.04015 6.36098 7.85818 6.36133 7.67657 6.36133C7.49477 6.36133 7.19927 6.42977 6.94939 6.70263C6.69934 6.9755 5.99463 7.63529 5.99463 8.97715C5.99463 10.3192 6.97203 11.6158 7.10837 11.7979C7.24472 11.9799 8.99509 14.8216 11.7671 15.9148C14.0709 16.8234 14.5396 16.6426 15.0397 16.5972C15.5398 16.5518 16.6532 15.9374 16.8805 15.3006C17.1079 14.6638 17.1079 14.1181 17.0396 14.0038C16.9713 13.8903 16.7896 13.822 16.5169 13.6857C16.2442 13.5494 14.9034 12.8894 14.6533 12.7985C14.4033 12.7074 14.2215 12.6621 14.0397 12.9352C13.8577 13.2079 13.3355 13.822 13.1763 14.0038C13.0172 14.1862 12.858 14.209 12.5853 14.0725C12.3126 13.9358 11.4342 13.648 10.3922 12.7188C9.58153 11.996 9.03405 11.1032 8.87489 10.8302C8.71591 10.5575 8.87226 10.4227 8.99474 10.2737C9.21531 10.0054 9.58539 9.52306 9.67629 9.34127C9.76719 9.15912 9.72174 8.99996 9.65365 8.86344C9.58539 8.7271 9.05528 7.37839 8.81295 6.83898Z" fill="white"/>
</g>
<defs>
<clipPath id="clip0_17_0">
<rect width="23" height="23" fill="white"/>
</clipPath>
</defs>
</svg>
