<svg width="72" height="72" viewBox="0 0 72 72" fill="none" xmlns="http://www.w3.org/2000/svg">
<circle cx="36" cy="36" r="36" fill="#0080C5" fill-opacity="0.16"/>
<circle cx="36" cy="36" r="30" fill="#0080C5"/>
<path d="M38.6087 33.5626C38.6087 31.0611 36.6686 29.037 34.2788 29.037H28.5869H24.045H24V43.2593H28.5869V38.0949H31.1373L34.2916 43.2593H38.6023L35.358 37.9469C37.2275 37.4426 38.6087 35.6741 38.6087 33.5626ZM28.5869 32.7019H33.0389C33.495 32.7019 33.8612 33.0852 33.8612 33.5626C33.8612 34.04 33.495 34.4233 33.0389 34.4233H28.5869V32.7019Z" fill="white"/>
<path d="M46.699 29.037H43.2322H39.9121V32.7243H43.3034V43.2593H47.9991V29.037H46.699Z" fill="white"/>
<path d="M43.8269 42.7325V32.1975H40.4355V29.5638H47.479V42.7325H43.8269Z" fill="#0080C5"/>
</svg>
