<svg width="92" height="67" viewBox="0 0 92 67" fill="none" xmlns="http://www.w3.org/2000/svg">
<g clip-path="url(#clip0_4402_9351)">
<path d="M3.50153 59H5.15729L8.65882 67H6.78591L6.02589 65.2046H2.57865L1.81862 67H0L3.50153 59ZM5.40159 63.6733L4.31584 61.0858L3.23009 63.6733H5.40159Z" fill="#0080C5"/>
<path d="M10.8235 59H14.375C15.2375 59 15.9478 59.2384 16.379 59.7152C16.7341 60.0861 16.9117 60.5364 16.9117 61.0927C16.9117 61.9934 16.4551 62.4967 15.897 62.8146C16.7849 63.1589 17.3176 63.7152 17.3176 64.8013C17.3176 66.2583 16.1761 67 14.4511 67H10.8235V59ZM14.0198 62.2318C14.7555 62.2318 15.2375 61.9934 15.2375 61.3576C15.2375 60.8278 14.8569 60.5364 14.1466 60.5364H12.4724V62.2318H14.0198ZM14.4511 65.4371C15.1867 65.4371 15.6433 65.1722 15.6433 64.5364C15.6433 64.0066 15.2628 63.6622 14.4003 63.6622H12.447V65.4106H14.4511V65.4371Z" fill="#0080C5"/>
<path d="M21.8463 60.6213H19.4824V59H25.9765V60.6213H23.5867V67H21.8723V60.6213H21.8463Z" fill="#0080C5"/>
<path d="M28.1411 63C28.1411 60.7949 29.7461 59 31.9412 59C34.1362 59 35.7176 60.7692 35.7176 63C35.7176 65.2051 34.1126 67 31.9176 67C29.7225 66.9744 28.1411 65.2051 28.1411 63ZM34.0654 63C34.0654 61.6667 33.1685 60.5641 31.9176 60.5641C30.6666 60.5641 29.7933 61.641 29.7933 63C29.7933 64.3333 30.6902 65.4359 31.9412 65.4359C33.1921 65.4103 34.0654 64.3333 34.0654 63Z" fill="#0080C5"/>
<path d="M38.9646 63C38.9646 60.7949 40.4885 59 42.6454 59C43.9817 59 44.7319 59.5641 45.3884 60.2564L44.4506 61.4359C43.9114 60.8974 43.4425 60.5641 42.6219 60.5641C41.4263 60.5641 40.5823 61.641 40.5823 63C40.5823 64.3333 41.4263 65.4359 42.6219 65.4359C43.419 65.4359 43.9348 65.0769 44.4741 64.5385L45.4587 65.6923C44.7319 66.5385 43.9348 67 42.575 67C40.5119 66.9744 38.9646 65.2308 38.9646 63Z" fill="#0080C5"/>
<path d="M48.7058 59H54.047V60.5681H50.2588V62.1894H53.5999V63.7575H50.2588V65.4319H54.1176V67H48.7293V59H48.7058Z" fill="#0080C5"/>
<path d="M57.3647 59H60.1616C61.7987 59 62.7765 60.1429 62.7765 61.7907C62.7765 63.6512 61.5486 64.608 60.0024 64.608H58.8655V67H57.3647V59ZM60.0706 63.0399C60.821 63.0399 61.2758 62.5083 61.2758 61.7907C61.2758 60.9934 60.7983 60.5681 60.0479 60.5681H58.8882V63.0133H60.0706V63.0399Z" fill="#0080C5"/>
<path d="M66.0234 59H69.5749C70.4374 59 71.1477 59.2384 71.5789 59.7152C71.9341 60.0861 72.1117 60.5364 72.1117 61.0927C72.1117 61.9934 71.6551 62.4967 71.097 62.8146C71.9848 63.1589 72.5176 63.7152 72.5176 64.8013C72.5176 66.2583 71.376 67 69.651 67H66.0234V59ZM69.2198 62.2318C69.9554 62.2318 70.4374 61.9934 70.4374 61.3576C70.4374 60.8278 70.0569 60.5364 69.3466 60.5364H67.6977V62.2318H69.2198ZM69.6764 65.4371C70.412 65.4371 70.8687 65.1722 70.8687 64.5364C70.8687 64.0066 70.4881 63.6622 69.6256 63.6622H67.6723V65.4106H69.6764V65.4371Z" fill="#0080C5"/>
<path d="M82.2338 67H80.6103V61.7375L77.3132 67H75.7646V59H77.3882V64.2359L80.7102 59H82.2588V67H82.2338Z" fill="#0080C5"/>
<path d="M84.4236 63C84.4236 60.7949 86.2015 59 88.7178 59C90.2769 59 91.1521 59.5641 91.918 60.2564L90.8239 61.4359C90.1948 60.8974 89.6478 60.5641 88.6905 60.5641C87.2955 60.5641 86.3109 61.641 86.3109 63C86.3109 64.3333 87.2955 65.4359 88.6905 65.4359C89.6204 65.4359 90.1948 65.0769 90.8513 64.5385L92 65.6923C91.1521 66.5385 90.2222 67 88.6084 67C86.2288 66.9744 84.4236 65.2308 84.4236 63Z" fill="#0080C5"/>
<path d="M56 17.183C56 7.68511 48.5629 0 39.4019 0H17.5831H0.172383H0V54H17.5831V34.3915H27.3597L39.4512 54H55.9754L43.5391 33.8298C50.7054 31.9149 56 25.2 56 17.183ZM17.5831 13.9149H34.6491C36.3975 13.9149 37.8012 15.3702 37.8012 17.183C37.8012 18.9957 36.3975 20.4511 34.6491 20.4511H17.5831V13.9149Z" fill="#0080C5"/>
<path d="M87.0165 0H73.7271H61V14H74V54H92V0H87.0165Z" fill="#0080C5"/>
<path d="M76 52V12H63V2H90V52H76Z" fill="white"/>
</g>
<defs>
<clipPath id="clip0_4402_9351">
<rect width="92" height="67" fill="white"/>
</clipPath>
</defs>
</svg>
