<svg width="192" height="48" viewBox="0 0 192 48" fill="none" xmlns="http://www.w3.org/2000/svg">
<g clip-path="url(#clip0_2909_19430)">
<path d="M111.398 41.9136C111.398 42.2784 111.514 42.4896 111.725 42.4896C111.898 42.4704 112.051 42.3937 112.186 42.2976L172.032 3.45604C173.043 2.74923 174.255 2.3858 175.488 2.41924H188.64C190.656 2.41924 192.019 3.76324 192.019 5.77924V30.8928C192.019 33.9264 191.347 35.6928 188.659 37.3056L172.704 46.9056C172.545 47.0161 172.359 47.0823 172.166 47.0976C171.974 47.0976 171.782 46.944 171.782 46.3872V17.088C171.782 16.7424 171.686 16.512 171.456 16.512C171.287 16.5314 171.128 16.598 170.995 16.704L127.258 45.12C126.259 45.792 125.088 46.1568 123.898 46.1376H94.9056C92.8704 46.1376 91.5264 44.7936 91.5264 42.7584V6.56644C91.5264 6.29764 91.4112 6.04804 91.1808 6.04804C91.0127 6.06938 90.8535 6.13572 90.72 6.24004L61.8624 23.5584C61.5744 23.7504 61.4976 23.8848 61.4976 24.0192C61.4976 24.1344 61.5552 24.2496 61.7472 24.4608L82.368 45.0624C82.6368 45.3312 82.8288 45.5424 82.8288 45.7729C82.8288 45.9648 82.5216 46.1185 82.1568 46.1185H63.5328C62.0736 46.1185 60.9408 45.9072 60.1536 45.12L47.6544 32.64C47.607 32.5834 47.5485 32.5371 47.4824 32.5041C47.4163 32.471 47.3442 32.452 47.2704 32.448C47.1349 32.4543 47.003 32.4939 46.8864 32.5632L25.9968 45.12C24.7296 45.8881 23.8656 46.0992 22.6176 46.0992H3.3984C1.344 46.1185 0 44.7552 0 42.7393V18.1056C0 15.0528 0.672 13.3056 3.3792 11.6928L19.4304 2.05444C19.5563 1.97198 19.7024 1.9255 19.8528 1.92004C20.1024 1.92004 20.2368 2.16964 20.2368 2.72644V35.712C20.2368 36.0576 20.3136 36.2113 20.5632 36.2113C20.736 36.192 20.8896 36.1152 21.0432 36.0192L75.264 3.39844C76.3008 2.68804 77.568 2.34244 78.8352 2.40004H108.019C110.035 2.40004 111.398 3.74404 111.398 5.76004L111.379 41.9136H111.398Z" fill="#C72128"/>
</g>
<defs>
<clipPath id="clip0_2909_19430">
<rect width="192" height="48" fill="white"/>
</clipPath>
</defs>
</svg>
