<svg width="220" height="160" viewBox="0 0 220 160" fill="none" xmlns="http://www.w3.org/2000/svg">
<g clip-path="url(#clip0_3105_17334)">
<path d="M8.37323 140.896H12.3327L20.7059 160H16.2272L14.4097 155.713H6.16633L4.34889 160H0L8.37323 140.896ZM12.9168 152.056L10.3205 145.877L7.72414 152.056H12.9168Z" fill="white"/>
<path d="M25.8828 140.896H34.3755C36.438 140.896 38.1365 141.465 39.1677 142.604C40.017 143.489 40.4416 144.565 40.4416 145.893C40.4416 148.044 39.3497 149.246 38.0152 150.005C40.1383 150.827 41.4122 152.156 41.4122 154.749C41.4122 158.229 38.6824 160 34.5574 160H25.8828V140.896ZM33.5262 148.613C35.2854 148.613 36.438 148.044 36.438 146.526C36.438 145.26 35.528 144.565 33.8295 144.565H29.8258V148.613H33.5262ZM34.5574 156.268C36.3166 156.268 37.4086 155.635 37.4086 154.117C37.4086 152.852 36.4986 152.029 34.4361 152.029H29.7652V156.204H34.5574V156.268Z" fill="white"/>
<path d="M52.2425 144.767H46.5898V140.896H62.1192V144.767H56.4044V160H52.3047V144.767H52.2425Z" fill="white"/>
<path d="M67.293 150.448C67.293 145.182 71.131 140.896 76.38 140.896C81.6291 140.896 85.4106 145.121 85.4106 150.448C85.4106 155.714 81.5726 160 76.3236 160C71.0745 159.939 67.293 155.714 67.293 150.448ZM81.4597 150.448C81.4597 147.264 79.315 144.631 76.3236 144.631C73.3322 144.631 71.2439 147.202 71.2439 150.448C71.2439 153.632 73.3886 156.265 76.38 156.265C79.3714 156.204 81.4597 153.632 81.4597 150.448Z" fill="white"/>
<path d="M93.1758 150.448C93.1758 145.182 96.8199 140.896 101.978 140.896C105.173 140.896 106.967 142.243 108.537 143.896L106.294 146.713C105.005 145.427 103.884 144.631 101.922 144.631C99.0624 144.631 97.0441 147.202 97.0441 150.448C97.0441 153.632 99.0624 156.265 101.922 156.265C103.828 156.265 105.061 155.408 106.351 154.122L108.705 156.877C106.967 158.898 105.061 160 101.809 160C96.8759 159.939 93.1758 155.775 93.1758 150.448Z" fill="white"/>
<path d="M116.469 140.896H129.241V144.64H120.182V148.512H128.172V152.257H120.182V156.255H129.41V160H116.525V140.896H116.469Z" fill="white"/>
<path d="M137.176 140.896H143.864C147.779 140.896 150.117 143.625 150.117 147.56C150.117 152.003 147.181 154.288 143.483 154.288H140.765V160H137.176V140.896ZM143.646 150.543C145.441 150.543 146.528 149.274 146.528 147.56C146.528 145.656 145.386 144.64 143.592 144.64H140.819V150.479H143.646V150.543Z" fill="white"/>
<path d="M157.883 140.896H166.375C168.438 140.896 170.136 141.465 171.168 142.604C172.017 143.489 172.442 144.565 172.442 145.893C172.442 148.044 171.35 149.246 170.015 150.005C172.138 150.827 173.412 152.156 173.412 154.749C173.412 158.229 170.682 160 166.557 160H157.883V140.896ZM165.526 148.613C167.285 148.613 168.438 148.044 168.438 146.526C168.438 145.26 167.528 144.565 165.83 144.565H161.886V148.613H165.526ZM166.618 156.268C168.377 156.268 169.469 155.635 169.469 154.117C169.469 152.852 168.559 152.029 166.497 152.029H161.826V156.204H166.618V156.268Z" fill="white"/>
<path d="M196.645 160H192.763V147.433L184.879 160H181.176V140.896H185.058V153.399L193.002 140.896H196.705V160H196.645Z" fill="white"/>
<path d="M201.883 150.448C201.883 145.182 206.134 140.896 212.152 140.896C215.88 140.896 217.973 142.243 219.804 143.896L217.188 146.713C215.684 145.427 214.375 144.631 212.086 144.631C208.75 144.631 206.396 147.202 206.396 150.448C206.396 153.632 208.75 156.265 212.086 156.265C214.31 156.265 215.684 155.408 217.253 154.122L220 156.877C217.973 158.898 215.749 160 211.89 160C206.2 159.939 201.883 155.775 201.883 150.448Z" fill="white"/>
<path d="M133.913 41.034C133.913 18.3525 116.129 0 94.222 0H42.0466H0.412221H0V128.955H42.0466V82.1289H65.4254L94.3398 128.955H133.854L104.115 80.7876C121.252 76.2147 133.913 60.1791 133.913 41.034ZM42.0466 33.2296H82.8565C87.0376 33.2296 90.3943 36.705 90.3943 41.034C90.3943 45.363 87.0376 48.8384 82.8565 48.8384H42.0466V33.2296Z" fill="white"/>
<path d="M208.084 0H176.306H145.871V33.4328H176.958V128.955H220.002V0H208.084Z" fill="white"/>
<path d="M181.739 124.179V28.6567H150.652V4.77612H215.218V124.179H181.739Z" fill="#0080C5"/>
</g>
<defs>
<clipPath id="clip0_3105_17334">
<rect width="220" height="160" fill="white"/>
</clipPath>
</defs>
</svg>
