<svg width="112" height="112" viewBox="0 0 112 112" fill="none" xmlns="http://www.w3.org/2000/svg">
<path d="M102.692 27.6216C102.314 27.1675 101.784 26.6378 101.405 26.1837C90.0541 14 71.5136 11.3513 55.9244 11.3513C40.1838 11.3513 21.1136 14 9.91357 26.9405C9.76222 27.1675 9.53519 27.3946 9.38384 27.6216C3.93519 34.2054 0.529785 43.5135 0.529785 56.0756C0.529785 94.8216 32.0109 101.027 55.9244 101.027C79.9136 101.027 111.47 94.8216 111.47 56.0756C111.47 43.5135 108.141 34.1297 102.692 27.6216ZM19.8271 33.7513C27.319 22.2486 41.4703 19.4486 55.9244 19.4486C70.3784 19.4486 84.3028 22.0973 91.8703 33.3729C92.0217 33.6 92.173 33.9027 92.3244 34.2054C79.3838 41.8486 64.7028 42.1513 55.9244 61.0702C46.3136 42.681 31.7838 42.5297 19.0703 35.1892C19.2974 34.7351 19.6001 34.281 19.8271 33.7513ZM55.9244 92.9297C34.4325 93.081 14.3784 86.8756 14.3784 56.0756C14.3784 53.8054 14.3784 51.4594 14.7568 49.4919C14.8325 49.0378 14.9838 48.5837 15.0595 48.1297C22.2487 50.7027 29.3622 53.1243 36.6271 55.5459C45.1028 59.027 50.7784 64.0216 55.9244 75.2216C61.0703 64.0216 66.5947 58.3459 75.146 54.8648C82.4865 52.2919 89.6757 49.6432 97.0163 47.0702C97.0919 47.2216 97.0919 47.4486 97.1676 47.6C97.546 50.0973 97.6974 53.0486 97.6974 56.0756C97.773 86.8756 77.4163 93.1567 55.9244 92.9297Z" fill="#0080C5"/>
</svg>
