<svg width="97" height="57" viewBox="0 0 97 57" fill="none" xmlns="http://www.w3.org/2000/svg">
<g clip-path="url(#clip0_81_3670)">
<path d="M59 18.1376C59 8.11206 51.1645 0 41.5128 0H18.5251H0.181618H0V57H18.5251V36.3021H28.8254L41.5646 57H58.9741L45.8716 35.7092C53.4217 33.6879 59 26.6 59 18.1376ZM18.5251 14.6879H36.5053C38.3474 14.6879 39.8263 16.2241 39.8263 18.1376C39.8263 20.0511 38.3474 21.5872 36.5053 21.5872H18.5251V14.6879Z" fill="#0080C5"/>
<path d="M91.5342 0H76.9588H63V14H78V57H97V0H91.5342Z" fill="#0080C5"/>
<path d="M80 55V12H65V2H95V55H80Z" fill="white"/>
</g>
<defs>
<clipPath id="clip0_81_3670">
<rect width="97" height="57" fill="white"/>
</clipPath>
</defs>
</svg>
