<svg width="156" height="80" viewBox="0 0 156 80" fill="none" xmlns="http://www.w3.org/2000/svg">
<g clip-path="url(#clip0_2909_19400)">
<path d="M77.9249 79.8501C120.85 79.8501 155.825 62.0751 155.825 39.9751C155.625 17.9001 120.875 0.100098 77.9249 0.100098C34.7999 0.100098 0.0249023 17.8751 0.0249023 39.9751C0.0249023 62.0751 34.7999 79.8501 77.9249 79.8501ZM92.4499 60.2251C91.2249 63.3001 88.9749 69.6251 83.8749 72.2751C82.2499 73.1001 80.3999 73.5001 78.7749 73.5001H77.9499C63.6499 73.5001 50.1499 71.4501 39.0999 68.1751L38.6999 67.9751C37.6749 67.5751 37.0749 67.1501 37.0749 66.5501C37.0749 65.9251 37.2749 65.7251 37.6999 65.3251L38.3249 64.7001C40.9749 62.4501 48.7499 56.7251 63.4749 51.2001C68.5749 49.1501 75.1249 46.7001 81.8749 45.2751C85.4999 44.5001 100.225 42.2501 92.4499 60.2251ZM131.9 20.1751C132.1 19.7751 132.525 19.3501 133.125 19.1501C133.525 19.1501 133.95 19.1501 134.75 19.7751C143.95 25.5001 149.275 32.4501 149.275 40.0251C149.275 53.7251 131.7 65.5751 106.35 70.7001C104.725 71.1001 103.7 71.1001 103.275 70.7001C103.075 70.5001 102.875 70.0751 103.275 69.4751C103.475 69.2751 103.675 68.8501 103.9 68.4501C117.6 52.3001 128.225 28.3751 131.1 21.4251C131.5 20.9751 131.7 20.3751 131.9 20.1751ZM63.4249 19.5501C64.6499 16.4751 66.8999 10.1501 71.9999 7.5001C73.6249 6.8751 75.6749 6.4751 77.3249 6.4751H78.1499C92.4499 6.4751 105.95 8.5251 117 11.8001L117.4 12.0001C118.425 12.4001 119.025 12.8251 119.025 13.4251C119.025 14.0251 118.825 14.2501 118.4 14.6501L117.775 15.2751C115.125 17.5251 107.35 23.0501 92.8249 28.7751C87.7249 30.8251 81.1749 33.2751 74.4249 34.7001C70.3749 35.3001 55.6499 37.5501 63.4249 19.5501ZM49.2999 9.3251C50.9249 8.9251 51.9499 8.9251 52.3749 9.3251C52.5749 9.5251 52.5749 9.9501 52.3749 10.5501C52.1749 10.7501 51.9749 11.1751 51.7499 11.5751C38.0499 27.7251 27.4249 51.6501 24.5499 58.6001C24.3499 59.0001 24.1499 59.6251 23.9249 59.8251C23.7249 60.2251 23.2999 60.6501 22.6999 60.8501C22.2999 60.8501 21.8749 60.8501 21.0749 60.2251C11.8749 54.5001 6.5499 47.5501 6.5499 39.9751C6.3749 26.3001 24.1749 14.4501 49.2999 9.3251Z" fill="#003984"/>
</g>
<defs>
<clipPath id="clip0_2909_19400">
<rect width="156" height="80" fill="white"/>
</clipPath>
</defs>
</svg>
