<svg width="217" height="86" viewBox="0 0 217 86" fill="none" xmlns="http://www.w3.org/2000/svg">
<path d="M205 0C211.627 0 217 5.37258 217 12V17C213.686 17 211 19.6863 211 23C211 26.3137 213.686 29 217 29V37C213.686 37 211 39.6863 211 43C211 46.3137 213.686 49 217 49V57C213.686 57 211 59.6863 211 63C211 66.3137 213.686 69 217 69V74C217 80.6274 211.627 86 205 86H12C5.37258 86 3.22138e-07 80.6274 0 74V69C3.31371 69 6 66.3137 6 63C6 59.6863 3.31371 57 0 57V49C3.31371 49 6 46.3137 6 43C6 39.6863 3.31371 37 0 37V29C3.31371 29 6 26.3137 6 23C6 19.6863 3.31371 17 0 17V12C3.22139e-07 5.37258 5.37258 0 12 0H205Z" fill="white"/>
</svg>
