<svg xmlns="http://www.w3.org/2000/svg">
<defs>
<clipPath id="a">
      <path d="M17 0H0v17h17z"/>
    </clipPath>
</defs>
<symbol id="arrow1" viewBox="0 0 11 11">
  <path d="M7.363 7.742a.747.747 0 0 0 .463-.688V.747a.748.748 0 1 0-1.494 0v4.536L1.27.217A.746.746 0 0 0 .217 1.27L5.28 6.337H.747a.747.747 0 0 0 0 1.494h6.34a.746.746 0 0 0 .276-.09Z"/>
  <path d="M10.246 3.168a.747.747 0 0 0-.747.748v5.59H3.913a.747.747 0 0 0 0 1.494h6.34a.746.746 0 0 0 .747-.747V3.916a.748.748 0 0 0-.754-.748Z"/>
</symbol>
<symbol id="arrow2" viewBox="0 0 15 8">
  <path d="M7.974 8h3.132l1.966-2.02.565-.58.716-.735L15 4l-.647-.665-.716-.735-.565-.58L11.106 0H7.974l2.53 3H.612v2h9.892l-2.53 3Z"/>
</symbol>
<symbol id="arrow3" viewBox="0 0 12 8">
<path d="M1 1L6 6L11 1" stroke="white" stroke-width="1.5"/>
</symbol>
<symbol id="chat" viewBox="0 0 18 18">
  <path d="M11.813 9.563H6.186a.563.563 0 0 0 0 1.124h5.625a.563.563 0 0 0 0-1.124Zm1.124-3.376H5.064a.563.563 0 0 0 0 1.125h7.875a.563.563 0 0 0 0-1.125ZM9 0C4.03 0 0 3.526 0 7.875c0 2.486 1.32 4.699 3.375 6.142V18l3.943-2.392c.545.09 1.107.142 1.682.142 4.97 0 9-3.526 9-7.875C18 3.525 13.97 0 9 0Zm0 14.625a9.105 9.105 0 0 1-1.901-.206L4.45 16.01l.036-2.608c-2.03-1.222-3.361-3.24-3.361-5.527 0-3.728 3.526-6.75 7.875-6.75 4.35 0 7.875 3.022 7.875 6.75s-3.526 6.75-7.875 6.75Z"/>
</symbol>
<symbol id="facebook" viewBox="0 0 11 19">
  <path d="M6.971 19v-8.666H9.88l.436-3.379H6.971V4.8c0-.978.27-1.644 1.675-1.644l1.787-.001V.132C10.123.092 9.063 0 7.828 0c-2.58 0-4.345 1.574-4.345 4.464v2.491H.567v3.379h2.916V19h3.488Z"/>
</symbol>
<symbol id="instagram" viewBox="0 0 17 17">
  <g clip-path="url(#a)">
    <path d="M4.602 0h7.796A4.607 4.607 0 0 1 17 4.602v7.796A4.607 4.607 0 0 1 12.398 17H4.602A4.607 4.607 0 0 1 0 12.398V4.602A4.607 4.607 0 0 1 4.602 0ZM8.5 13.148A4.654 4.654 0 0 0 13.148 8.5 4.654 4.654 0 0 0 8.5 3.852 4.654 4.654 0 0 0 3.852 8.5 4.654 4.654 0 0 0 8.5 13.148Zm-4.76-8.2a1.375 1.375 0 0 0 0-2.747 1.375 1.375 0 0 0 .001 2.747Z"/>
    <path d="M8.5 4.848A3.656 3.656 0 0 1 12.152 8.5 3.656 3.656 0 0 1 8.5 12.152 3.656 3.656 0 0 1 4.848 8.5 3.656 3.656 0 0 1 8.5 4.848ZM3.74 3.197a.377.377 0 1 1 0 .755.377.377 0 0 1 0-.755Z"/>
  </g>
  
</symbol>
<symbol id="phone" viewBox="0 0 21 21">
  <path d="m20.428 15.412-2.93-2.93c-1.047-1.047-2.826-.629-3.245.732-.314.942-1.36 1.465-2.302 1.256-2.094-.523-4.92-3.245-5.443-5.443-.314-.942.314-1.988 1.256-2.302 1.36-.419 1.78-2.198.733-3.245L5.567.55c-.838-.733-2.094-.733-2.827 0L.752 2.537c-1.99 2.093.209 7.64 5.128 12.56 4.92 4.92 10.467 7.222 12.56 5.129l1.988-1.99c.733-.836.733-2.092 0-2.825Z"/>
</symbol>
<symbol id="phone2" viewBox="0 0 18 18">
  <path d="M1.95.807a2.74 2.74 0 0 0-.154.196C.945 2.131-.072 3.866.004 5.54c.13 2.803 3.913 6.529 5.07 7.604 1.156 1.075 5.148 4.576 7.95 4.5.468-.012.963-.11 1.472-.292 1.174-.421 2.234-1.222 2.908-1.812 0 0 .145-.123.2-.182.141-.153.253-.374.341-.679.045-.155.055-.32.055-.429 0-.122-.012-.36-.093-.575-.11-.295-.236-.506-.387-.648a286.796 286.796 0 0 0-2.654-2.094l-.02-.013a1.694 1.694 0 0 0-1.613-.262 1.608 1.608 0 0 0-.635.417l-.869.93a.842.842 0 0 1-.286.19.77.77 0 0 1-.12.014L5.494 6.794a.104.104 0 0 1-.025-.036l.008-.021c.021-.043.122-.181.248-.317l.859-.93c.454-.49.567-1.25.278-1.843a1.973 1.973 0 0 0-.31-.444l-.034-.041C6.503 3.142 4.375.808 4.28.72 4.044.5 3.672.381 3.142.356c-.294-.014-.663.073-.877.206-.138.086-.24.167-.313.245Zm1.606.672c.119.12 2.055 2.242 2.156 2.353l.072.086a.917.917 0 0 1 .137.19.613.613 0 0 1-.105.67l-.86.931c-.101.109-.346.387-.443.619a1.11 1.11 0 0 0-.095.445c.01.298.137.576.36.787l5.886 5.47c.224.208.55.274.969.197.323-.06.674-.304.863-.506l.87-.932a.564.564 0 0 1 .22-.143.654.654 0 0 1 .453.006.722.722 0 0 1 .175.105c.022.017.04.029.055.039a456.66 456.66 0 0 1 2.533 1.994s.051.059.124.252a.72.72 0 0 1 .026.208c0 .072-.008.12-.014.136-.054.188-.1.253-.1.255-.033.034-.104.092-.115.102-.615.538-1.561 1.256-2.581 1.621a3.676 3.676 0 0 1-1.144.232c-1.915.052-5.081-2.241-7.21-4.22-2.13-1.979-4.648-4.97-4.736-6.884-.065-1.38.833-2.866 1.572-3.846l.028-.038c.017-.022.046-.064.062-.083.026-.024.065-.048.096-.068a.759.759 0 0 1 .281-.053c.31.015.453.07.465.075Z"/>
</symbol>
<symbol id="phone3" viewBox="0 0 16 16">
  <path d="M15.231 11.76c0-.002-.003-.002-.004-.002l-3.045-1.178a.613.613 0 0 0-.2-.034c-.296 0-.62.198-.839.366-.114.088-.366.295-.506.527a1.18 1.18 0 0 1-.39.06c-.527 0-1.225-.253-2.019-.733a10.229 10.229 0 0 1-1.942-1.533c-.683-.699-1.284-1.527-1.647-2.27-.279-.573-.547-1.36-.303-1.958.267-.153.508-.452.584-.55.284-.375.393-.695.322-.95a.978.978 0 0 0-.009-.028L4.121.407A.338.338 0 0 0 4.087.34C3.995.185 3.798 0 3.394 0 3 0 2.444.177 1.697.542c-.513.25-.924.498-.96.519-.37.22-.621.69-.705 1.324-.13.989.137 2.288.752 3.659.357.793.829 1.61 1.403 2.427a21.916 21.916 0 0 0 2.276 2.711c1.567 1.6 3.196 2.823 4.843 3.631 1.312.644 2.606 1 3.647 1 .802 0 1.375-.212 1.617-.595.07-.091.378-.5.669-.994.476-.814.65-1.425.53-1.869a.873.873 0 0 0-.538-.595Z"/>
</symbol>
<symbol id="quote" viewBox="0 0 11 9">
  <path d="M0 .375v8.25L4.125 4.5V.375H0Zm6.875 0v8.25L11 4.5V.375H6.875Z"/>
</symbol>
<symbol id="user" viewBox="0 0 16 16">
  <path d="M13.657 10.343a7.97 7.97 0 0 0-3.04-1.907 4.623 4.623 0 0 0 2.008-3.811A4.63 4.63 0 0 0 8 0a4.63 4.63 0 0 0-4.625 4.625c0 1.58.796 2.977 2.008 3.811a7.97 7.97 0 0 0-3.04 1.907A7.948 7.948 0 0 0 0 16h1.25A6.758 6.758 0 0 1 8 9.25 6.758 6.758 0 0 1 14.75 16H16a7.948 7.948 0 0 0-2.343-5.657ZM8 8a3.379 3.379 0 0 1-3.375-3.375A3.379 3.379 0 0 1 8 1.25a3.379 3.379 0 0 1 3.375 3.375A3.379 3.379 0 0 1 8 8Z"/>
</symbol>
<symbol id="vk" viewBox="0 0 21 13">
  <path d="M18.073 8.114c.697.68 1.432 1.32 2.057 2.069.276.332.537.676.737 1.062.284.549.027 1.153-.465 1.186l-3.06-.002c-.789.066-1.418-.252-1.947-.792-.424-.431-.816-.89-1.223-1.336a2.897 2.897 0 0 0-.551-.49c-.418-.27-.78-.188-1.019.248-.243.443-.298.934-.322 1.427-.033.72-.25.91-.974.943-1.547.073-3.014-.161-4.378-.941C5.726 10.8 4.794 9.829 3.983 8.73 2.403 6.59 1.193 4.238.106 1.82-.139 1.275.04.983.641.972A83.117 83.117 0 0 1 3.637.971c.405.006.674.239.83.622.54 1.328 1.201 2.59 2.03 3.762.221.311.446.623.767.843.355.242.625.162.792-.233.106-.25.152-.52.176-.79.08-.923.09-1.844-.05-2.765-.084-.574-.408-.946-.98-1.054-.293-.056-.25-.164-.108-.331.246-.288.477-.467.938-.467h3.458c.544.107.665.352.74.9l.002 3.84c-.005.212.106.841.488.981.306.1.507-.144.69-.338.829-.879 1.42-1.917 1.947-2.992.235-.473.436-.964.631-1.454.145-.365.372-.544.782-.536l3.327.003c.099 0 .199.002.294.018.561.096.715.337.542.884-.273.86-.804 1.575-1.323 2.295-.555.768-1.149 1.51-1.7 2.282-.505.705-.465 1.06.163 1.673Z" clip-rule="evenodd"/>
</symbol>
</svg>