<svg xmlns="http://www.w3.org/2000/svg" width="18" height="18" fill="currentColor" viewBox="0 0 18 18">
  <path d="M11.813 9.563H6.186a.563.563 0 0 0 0 1.124h5.625a.563.563 0 0 0 0-1.124Zm1.124-3.376H5.064a.563.563 0 0 0 0 1.125h7.875a.563.563 0 0 0 0-1.125ZM9 0C4.03 0 0 3.526 0 7.875c0 2.486 1.32 4.699 3.375 6.142V18l3.943-2.392c.545.09 1.107.142 1.682.142 4.97 0 9-3.526 9-7.875C18 3.525 13.97 0 9 0Zm0 14.625a9.105 9.105 0 0 1-1.901-.206L4.45 16.01l.036-2.608c-2.03-1.222-3.361-3.24-3.361-5.527 0-3.728 3.526-6.75 7.875-6.75 4.35 0 7.875 3.022 7.875 6.75s-3.526 6.75-7.875 6.75Z"/>
</svg>
