<svg xmlns="http://www.w3.org/2000/svg" width="17" height="17" fill="currentColor" viewBox="0 0 17 17">
  <g clip-path="url(#a)">
    <path d="M4.602 0h7.796A4.607 4.607 0 0 1 17 4.602v7.796A4.607 4.607 0 0 1 12.398 17H4.602A4.607 4.607 0 0 1 0 12.398V4.602A4.607 4.607 0 0 1 4.602 0ZM8.5 13.148A4.654 4.654 0 0 0 13.148 8.5 4.654 4.654 0 0 0 8.5 3.852 4.654 4.654 0 0 0 3.852 8.5 4.654 4.654 0 0 0 8.5 13.148Zm-4.76-8.2a1.375 1.375 0 0 0 0-2.747 1.375 1.375 0 0 0 .001 2.747Z"/>
    <path d="M8.5 4.848A3.656 3.656 0 0 1 12.152 8.5 3.656 3.656 0 0 1 8.5 12.152 3.656 3.656 0 0 1 4.848 8.5 3.656 3.656 0 0 1 8.5 4.848ZM3.74 3.197a.377.377 0 1 1 0 .755.377.377 0 0 1 0-.755Z"/>
  </g>
  <defs>
    <clipPath id="a">
      <path d="M17 0H0v17h17z"/>
    </clipPath>
  </defs>
</svg>
