<svg xmlns="http://www.w3.org/2000/svg" width="16" height="16" fill="currentColor" viewBox="0 0 16 16">
  <path d="M15.231 11.76c0-.002-.003-.002-.004-.002l-3.045-1.178a.613.613 0 0 0-.2-.034c-.296 0-.62.198-.839.366-.114.088-.366.295-.506.527a1.18 1.18 0 0 1-.39.06c-.527 0-1.225-.253-2.019-.733a10.229 10.229 0 0 1-1.942-1.533c-.683-.699-1.284-1.527-1.647-2.27-.279-.573-.547-1.36-.303-1.958.267-.153.508-.452.584-.55.284-.375.393-.695.322-.95a.978.978 0 0 0-.009-.028L4.121.407A.338.338 0 0 0 4.087.34C3.995.185 3.798 0 3.394 0 3 0 2.444.177 1.697.542c-.513.25-.924.498-.96.519-.37.22-.621.69-.705 1.324-.13.989.137 2.288.752 3.659.357.793.829 1.61 1.403 2.427a21.916 21.916 0 0 0 2.276 2.711c1.567 1.6 3.196 2.823 4.843 3.631 1.312.644 2.606 1 3.647 1 .802 0 1.375-.212 1.617-.595.07-.091.378-.5.669-.994.476-.814.65-1.425.53-1.869a.873.873 0 0 0-.538-.595Z"/>
</svg>
