<svg xmlns="http://www.w3.org/2000/svg" width="18" height="18" fill="currentColor" viewBox="0 0 18 18">
  <path d="M1.95.807a2.74 2.74 0 0 0-.154.196C.945 2.131-.072 3.866.004 5.54c.13 2.803 3.913 6.529 5.07 7.604 1.156 1.075 5.148 4.576 7.95 4.5.468-.012.963-.11 1.472-.292 1.174-.421 2.234-1.222 2.908-1.812 0 0 .145-.123.2-.182.141-.153.253-.374.341-.679.045-.155.055-.32.055-.429 0-.122-.012-.36-.093-.575-.11-.295-.236-.506-.387-.648a286.796 286.796 0 0 0-2.654-2.094l-.02-.013a1.694 1.694 0 0 0-1.613-.262 1.608 1.608 0 0 0-.635.417l-.869.93a.842.842 0 0 1-.286.19.77.77 0 0 1-.12.014L5.494 6.794a.104.104 0 0 1-.025-.036l.008-.021c.021-.043.122-.181.248-.317l.859-.93c.454-.49.567-1.25.278-1.843a1.973 1.973 0 0 0-.31-.444l-.034-.041C6.503 3.142 4.375.808 4.28.72 4.044.5 3.672.381 3.142.356c-.294-.014-.663.073-.877.206-.138.086-.24.167-.313.245Zm1.606.672c.119.12 2.055 2.242 2.156 2.353l.072.086a.917.917 0 0 1 .137.19.613.613 0 0 1-.105.67l-.86.931c-.101.109-.346.387-.443.619a1.11 1.11 0 0 0-.095.445c.01.298.137.576.36.787l5.886 5.47c.224.208.55.274.969.197.323-.06.674-.304.863-.506l.87-.932a.564.564 0 0 1 .22-.143.654.654 0 0 1 .453.006.722.722 0 0 1 .175.105c.022.017.04.029.055.039a456.66 456.66 0 0 1 2.533 1.994s.051.059.124.252a.72.72 0 0 1 .026.208c0 .072-.008.12-.014.136-.054.188-.1.253-.1.255-.033.034-.104.092-.115.102-.615.538-1.561 1.256-2.581 1.621a3.676 3.676 0 0 1-1.144.232c-1.915.052-5.081-2.241-7.21-4.22-2.13-1.979-4.648-4.97-4.736-6.884-.065-1.38.833-2.866 1.572-3.846l.028-.038c.017-.022.046-.064.062-.083.026-.024.065-.048.096-.068a.759.759 0 0 1 .281-.053c.31.015.453.07.465.075Z"/>
</svg>
