<svg xmlns="http://www.w3.org/2000/svg" width="21" height="13" fill="currentColor" viewBox="0 0 21 13">
  <path d="M18.073 8.114c.697.68 1.432 1.32 2.057 2.069.276.332.537.676.737 1.062.284.549.027 1.153-.465 1.186l-3.06-.002c-.789.066-1.418-.252-1.947-.792-.424-.431-.816-.89-1.223-1.336a2.897 2.897 0 0 0-.551-.49c-.418-.27-.78-.188-1.019.248-.243.443-.298.934-.322 1.427-.033.72-.25.91-.974.943-1.547.073-3.014-.161-4.378-.941C5.726 10.8 4.794 9.829 3.983 8.73 2.403 6.59 1.193 4.238.106 1.82-.139 1.275.04.983.641.972A83.117 83.117 0 0 1 3.637.971c.405.006.674.239.83.622.54 1.328 1.201 2.59 2.03 3.762.221.311.446.623.767.843.355.242.625.162.792-.233.106-.25.152-.52.176-.79.08-.923.09-1.844-.05-2.765-.084-.574-.408-.946-.98-1.054-.293-.056-.25-.164-.108-.331.246-.288.477-.467.938-.467h3.458c.544.107.665.352.74.9l.002 3.84c-.005.212.106.841.488.981.306.1.507-.144.69-.338.829-.879 1.42-1.917 1.947-2.992.235-.473.436-.964.631-1.454.145-.365.372-.544.782-.536l3.327.003c.099 0 .199.002.294.018.561.096.715.337.542.884-.273.86-.804 1.575-1.323 2.295-.555.768-1.149 1.51-1.7 2.282-.505.705-.465 1.06.163 1.673Z" clip-rule="evenodd"/>
</svg>
